<?xml version="1.0" standalone="no"?>
<!DOCTYPE svg PUBLIC "-//W3C//DTD SVG 20010904//EN"
 "http://www.w3.org/TR/2001/REC-SVG-20010904/DTD/svg10.dtd">
<svg version="1.0" xmlns="http://www.w3.org/2000/svg"
 width="800.000000pt" height="280.000000pt" viewBox="0 0 800.000000 280.000000"
 preserveAspectRatio="xMidYMid meet">

<g transform="translate(0.000000,280.000000) scale(0.100000,-0.100000)"
fill="#000000" stroke="none">
<path d="M4248 2173 c7 -3 16 -2 19 1 4 3 -2 6 -13 5 -11 0 -14 -3 -6 -6z"/>
<path d="M6616 2167 c3 -10 9 -15 12 -12 3 3 0 11 -7 18 -10 9 -11 8 -5 -6z"/>
<path d="M6456 2153 c-6 -14 -5 -15 5 -6 7 7 10 15 7 18 -3 3 -9 -2 -12 -12z"/>
<path d="M6830 2159 c0 -5 5 -7 10 -4 6 3 10 8 10 11 0 2 -4 4 -10 4 -5 0 -10
-5 -10 -11z"/>
<path d="M4740 2150 c0 -5 9 -10 20 -10 11 0 20 5 20 10 0 6 -9 10 -20 10 -11
0 -20 -4 -20 -10z"/>
<path d="M4810 2140 c0 -5 9 -10 20 -10 11 0 20 5 20 10 0 6 -9 10 -20 10 -11
0 -20 -4 -20 -10z"/>
<path d="M4870 2130 c0 -5 9 -10 20 -10 11 0 20 5 20 10 0 6 -9 10 -20 10 -11
0 -20 -4 -20 -10z"/>
<path d="M6190 2130 c0 -6 7 -10 15 -10 8 0 15 2 15 4 0 2 -7 6 -15 10 -8 3
-15 1 -15 -4z"/>
<path d="M7918 2133 c7 -3 16 -2 19 1 4 3 -2 6 -13 5 -11 0 -14 -3 -6 -6z"/>
<path d="M4396 2109 c20 -23 24 -23 24 -5 0 7 -9 16 -21 19 -20 5 -20 5 -3
-14z"/>
<path d="M4935 2120 c3 -5 15 -10 26 -10 10 0 19 5 19 10 0 6 -12 10 -26 10
-14 0 -23 -4 -19 -10z"/>
<path d="M6085 2119 c-4 -6 -14 -8 -22 -5 -8 3 -11 1 -8 -4 9 -15 32 -12 39 5
6 17 0 20 -9 4z"/>
<path d="M7720 2120 c0 -5 7 -7 15 -4 8 4 15 8 15 10 0 2 -7 4 -15 4 -8 0 -15
-4 -15 -10z"/>
<path d="M5251 2104 c0 -11 3 -14 6 -6 3 7 2 16 -1 19 -3 4 -6 -2 -5 -13z"/>
<path d="M7941 2104 c0 -11 3 -14 6 -6 3 7 2 16 -1 19 -3 4 -6 -2 -5 -13z"/>
<path d="M4030 2100 c0 -5 5 -10 10 -10 6 0 10 5 10 10 0 6 -4 10 -10 10 -5 0
-10 -4 -10 -10z"/>
<path d="M4740 2100 c0 -5 9 -10 20 -10 11 0 20 5 20 10 0 6 -9 10 -20 10 -11
0 -20 -4 -20 -10z"/>
<path d="M5087 2089 c4 -13 8 -18 11 -10 2 7 -1 18 -6 23 -8 8 -9 4 -5 -13z"/>
<path d="M6236 2095 c-3 -8 -1 -15 4 -15 6 0 10 7 10 15 0 8 -2 15 -4 15 -2 0
-6 -7 -10 -15z"/>
<path d="M4800 2090 c0 -5 7 -10 15 -10 8 0 18 0 22 -1 4 0 9 4 11 10 2 6 -8
11 -22 11 -14 0 -26 -4 -26 -10z"/>
<path d="M6540 2096 c0 -2 8 -10 18 -17 15 -13 16 -12 3 4 -13 16 -21 21 -21
13z"/>
<path d="M4870 2081 c0 -5 9 -11 20 -14 13 -3 20 0 20 9 0 8 -9 14 -20 14 -11
0 -20 -4 -20 -9z"/>
<path d="M7467 2071 c-3 -13 -1 -18 9 -14 7 2 10 11 7 19 -7 19 -10 18 -16 -5z"/>
<path d="M3831 2064 c0 -11 3 -14 6 -6 3 7 2 16 -1 19 -3 4 -6 -2 -5 -13z"/>
<path d="M4933 2068 c2 -7 12 -13 22 -13 10 0 20 6 23 13 2 7 -6 12 -23 12
-17 0 -25 -5 -22 -12z"/>
<path d="M7510 2065 c0 -8 4 -15 8 -15 5 0 9 7 9 15 0 8 -4 15 -9 15 -4 0 -8
-7 -8 -15z"/>
<path d="M3534 2059 c-3 -6 -1 -16 6 -22 10 -9 12 -8 7 5 -3 9 -1 19 6 22 9 3
9 5 0 5 -6 1 -15 -4 -19 -10z"/>
<path d="M6170 2045 c0 -14 4 -25 9 -25 5 0 16 -3 25 -6 13 -5 16 1 16 25 0
26 -4 31 -25 31 -20 0 -25 -5 -25 -25z"/>
<path d="M4840 2050 c0 -5 5 -10 11 -10 5 0 7 5 4 10 -3 6 -8 10 -11 10 -2 0
-4 -4 -4 -10z"/>
<path d="M5894 2045 c-10 -8 -14 -15 -8 -15 6 0 17 7 24 15 16 19 9 19 -16 0z"/>
<path d="M5957 2053 c-10 -9 -9 -23 1 -23 5 0 9 7 9 15 0 17 -1 18 -10 8z"/>
<path d="M6267 2032 c-13 -28 -12 -28 43 -35 25 -2 39 -3 33 0 -7 3 -13 17
-13 31 0 22 -4 27 -26 27 -18 0 -30 -7 -37 -23z"/>
<path d="M6410 2045 c-8 -9 -21 -13 -34 -10 -19 5 -19 5 -3 -5 9 -6 17 -23 18
-38 l1 -27 10 30 c6 17 15 36 21 43 14 18 2 25 -13 7z"/>
<path d="M7360 2051 c0 -5 -3 -16 -6 -25 -3 -9 -1 -16 6 -16 6 0 9 4 5 9 -3 5
-1 12 5 16 13 8 13 25 0 25 -5 0 -10 -4 -10 -9z"/>
<path d="M7598 2031 c4 -17 7 -21 10 -11 3 8 9 18 14 21 5 3 1 8 -10 11 -16 4
-18 1 -14 -21z"/>
<path d="M7660 2049 c0 -5 5 -7 10 -4 6 3 10 8 10 11 0 2 -4 4 -10 4 -5 0 -10
-5 -10 -11z"/>
<path d="M3613 2035 c-3 -9 -3 -18 -1 -21 3 -3 8 4 11 16 6 23 -1 27 -10 5z"/>
<path d="M4130 2040 c-9 -6 -10 -10 -3 -10 6 0 15 5 18 10 8 12 4 12 -15 0z"/>
<path d="M4554 2031 c7 -9 16 -23 19 -31 4 -10 6 -8 6 7 1 12 7 23 14 26 6 2
-3 6 -20 9 -29 4 -31 3 -19 -11z"/>
<path d="M6580 2040 c0 -5 5 -10 10 -10 6 0 10 5 10 10 0 6 -4 10 -10 10 -5 0
-10 -4 -10 -10z"/>
<path d="M3776 2020 c3 -14 10 -29 15 -34 14 -16 10 6 -7 34 l-15 25 7 -25z"/>
<path d="M3888 2019 c12 -11 19 -13 24 -5 12 18 9 21 -16 21 -22 0 -23 -1 -8
-16z"/>
<path d="M6140 2020 c0 -11 2 -20 4 -20 2 0 6 9 9 20 3 11 1 20 -4 20 -5 0 -9
-9 -9 -20z"/>
<path d="M3320 2026 c0 -2 8 -10 18 -17 15 -13 16 -12 3 4 -13 16 -21 21 -21
13z"/>
<path d="M3845 2020 c-3 -5 -1 -10 4 -10 6 0 11 5 11 10 0 6 -2 10 -4 10 -3 0
-8 -4 -11 -10z"/>
<path d="M4090 2015 c7 -9 10 -25 6 -41 -4 -15 -3 -23 2 -20 17 10 20 65 4 71
-22 8 -25 6 -12 -10z"/>
<path d="M4461 2013 c-1 -30 18 -39 37 -17 16 17 16 17 0 5 -15 -12 -19 -10
-27 10 -10 23 -10 24 -10 2z"/>
<path d="M6065 2020 c3 -5 8 -10 11 -10 2 0 4 5 4 10 0 6 -5 10 -11 10 -5 0
-7 -4 -4 -10z"/>
<path d="M3970 2013 c0 -15 18 -35 23 -27 3 5 -1 15 -9 22 -8 7 -14 9 -14 5z"/>
<path d="M5568 2013 c-15 -4 -18 -15 -17 -61 l2 -57 6 49 c5 30 14 54 26 62
19 14 15 16 -17 7z"/>
<path d="M3400 2000 c0 -5 5 -10 11 -10 5 0 7 5 4 10 -3 6 -8 10 -11 10 -2 0
-4 -4 -4 -10z"/>
<path d="M3670 1990 c0 -11 4 -20 9 -20 5 0 7 9 4 20 -3 11 -7 20 -9 20 -2 0
-4 -9 -4 -20z"/>
<path d="M4172 1995 c3 -21 38 -35 38 -15 0 6 -4 9 -9 5 -6 -3 -15 3 -21 12
-10 17 -11 16 -8 -2z"/>
<path d="M4266 1995 c4 -8 8 -15 10 -15 2 0 4 7 4 15 0 8 -4 15 -10 15 -5 0
-7 -7 -4 -15z"/>
<path d="M5874 1995 c-18 -14 -18 -15 0 -9 16 6 17 5 7 -15 -7 -12 -9 -26 -6
-31 3 -6 1 -10 -5 -10 -6 0 -9 -4 -6 -9 4 -5 -8 -8 -26 -7 -18 2 -64 6 -103 9
l-70 6 71 -12 c40 -7 79 -19 87 -25 11 -10 17 -10 22 -2 4 7 15 10 25 7 15 -4
18 4 23 51 3 31 5 58 3 59 -1 2 -11 -4 -22 -12z"/>
<path d="M6516 1995 c4 -8 10 -15 15 -15 4 0 6 7 3 15 -4 8 -10 15 -15 15 -4
0 -6 -7 -3 -15z"/>
<path d="M3719 1983 c-13 -16 -12 -17 4 -4 16 13 21 21 13 21 -2 0 -10 -8 -17
-17z"/>
<path d="M3816 1985 c4 -8 10 -12 15 -9 14 8 10 24 -6 24 -9 0 -12 -6 -9 -15z"/>
<path d="M4360 1990 c0 -5 5 -10 11 -10 5 0 7 5 4 10 -3 6 -8 10 -11 10 -2 0
-4 -4 -4 -10z"/>
<path d="M6435 1990 c-3 -5 1 -10 9 -10 9 0 16 5 16 10 0 6 -4 10 -9 10 -6 0
-13 -4 -16 -10z"/>
<path d="M3560 1973 c0 -13 5 -23 10 -23 13 0 13 11 0 30 -8 12 -10 11 -10 -7z"/>
<path d="M5681 1974 c0 -11 3 -14 6 -6 3 7 2 16 -1 19 -3 4 -6 -2 -5 -13z"/>
<path d="M5818 1983 c6 -2 18 -2 25 0 6 3 1 5 -13 5 -14 0 -19 -2 -12 -5z"/>
<path d="M7463 1979 c-5 -5 -20 -11 -32 -12 -11 -1 -21 -6 -21 -13 0 -6 -3
-27 -6 -45 -4 -26 -3 -30 5 -19 6 8 11 25 11 38 0 12 6 22 13 22 17 0 54 27
46 34 -3 3 -10 1 -16 -5z"/>
<path d="M3612 1960 c0 -14 2 -19 5 -12 2 6 2 18 0 25 -3 6 -5 1 -5 -13z"/>
<path d="M6185 1969 c-28 -6 -28 -7 10 -8 22 0 54 -5 71 -10 18 -5 46 -5 65 0
l34 8 -34 -3 c-19 -2 -53 2 -75 9 -23 6 -54 8 -71 4z"/>
<path d="M2061 1962 c1 -15 18 -46 18 -35 1 8 13 7 41 -4 37 -15 45 -27 41
-59 -1 -9 9 -10 36 -4 26 6 40 5 45 -3 6 -9 8 -9 8 1 0 6 7 12 15 12 16 0 20
-15 7 -24 -5 -3 -29 -6 -55 -8 -40 -3 -47 -6 -46 -23 0 -11 3 -14 6 -7 5 14
33 17 33 3 0 -5 -9 -13 -20 -16 -11 -3 -20 -14 -19 -23 0 -11 3 -12 6 -4 5 14
33 17 33 3 0 -5 -9 -13 -20 -16 -11 -3 -20 -13 -20 -22 0 -8 -6 -13 -12 -10
-7 2 -12 11 -10 21 2 9 -2 16 -8 16 -5 0 -10 -4 -10 -10 0 -5 -7 -10 -15 -10
-18 0 -20 20 -2 20 6 0 4 5 -5 11 -10 5 -18 17 -18 26 0 10 5 13 18 8 41 -17
53 -14 15 4 -23 11 -43 25 -46 33 -4 15 -1 -20 7 -73 5 -29 12 -37 40 -47 19
-7 37 -20 40 -28 5 -12 2 -15 -10 -10 -8 3 -19 6 -24 6 -5 0 -16 7 -25 17 -16
15 -16 11 -12 -56 3 -40 7 -74 9 -75 2 -1 22 -10 46 -21 48 -21 109 -21 195
-1 31 7 60 10 63 5 5 -9 2 -10 -147 -37 l-107 -18 -78 37 c-43 21 -79 37 -80
36 0 -1 1 -36 4 -78 4 -71 6 -78 30 -89 21 -9 23 -13 11 -22 -11 -8 -10 -9 4
-4 10 3 41 -6 70 -20 49 -25 54 -26 115 -15 69 13 76 12 67 -11 -4 -9 -25 -18
-53 -22 -85 -12 -114 -18 -136 -27 -15 -6 -8 -7 24 -3 25 3 53 8 63 10 10 3
20 -1 24 -11 5 -14 14 -16 44 -11 29 5 39 3 39 -7 0 -7 54 -39 119 -72 l119
-58 129 27 c70 15 174 37 231 49 109 23 107 22 102 85 -1 12 1 22 3 22 2 0 31
-12 63 -26 69 -31 72 -31 187 -6 83 17 87 17 87 0 0 -10 -9 -20 -22 -23 -95
-21 -460 -99 -542 -116 -55 -12 -125 -27 -154 -34 -29 -8 -60 -12 -70 -9 -13
5 -14 4 -3 -4 7 -5 11 -15 7 -21 -9 -14 26 -2 36 13 5 8 11 7 20 -2 6 -6 21
-12 32 -13 19 0 19 -1 -3 -10 -45 -18 -15 -17 64 1 107 26 105 26 105 -18 l0
-38 109 -54 110 -54 177 44 176 44 -5 83 c-3 59 -1 83 7 83 12 0 215 -82 237
-96 25 -15 50 -10 344 65 86 22 108 20 54 -4 -24 -11 -27 -14 -9 -11 14 4 63
-4 110 -16 l84 -22 -58 -14 c-55 -14 -62 -13 -127 8 -37 13 -66 27 -63 32 3 4
2 8 -3 8 -13 0 -30 -14 -34 -29 -3 -8 -105 -39 -279 -83 -333 -83 -313 -76
-274 -92 66 -28 77 -30 70 -8 -11 33 14 43 58 21 36 -17 43 -18 89 -4 27 8 60
12 72 9 13 -3 33 -1 44 6 18 9 21 8 21 -10 0 -30 59 -52 105 -39 19 6 33 14
30 19 -3 4 -18 3 -35 -3 -46 -18 -83 0 -94 46 -8 30 -6 41 7 54 16 16 20 16
68 -4 38 -17 57 -20 75 -12 37 13 44 11 44 -14 0 -19 15 -29 111 -67 l111 -45
-31 -12 c-36 -15 -36 -16 -16 -37 12 -12 21 -13 43 -5 15 6 35 12 46 15 10 2
21 5 23 8 3 2 28 -6 56 -18 29 -13 57 -22 62 -20 44 12 386 118 408 126 19 7
27 17 27 35 0 21 3 23 23 17 60 -18 127 -46 127 -53 0 -4 -114 -42 -252 -86
-139 -43 -298 -93 -353 -111 -55 -18 -188 -60 -295 -94 -216 -68 -473 -150
-926 -294 -166 -53 -307 -96 -314 -96 -7 0 -56 31 -109 68 -53 38 -101 71
-107 75 -6 3 -33 -1 -62 -9 -37 -11 -49 -19 -45 -30 6 -16 -8 -19 -23 -4 -6 6
-32 3 -74 -8 l-63 -18 102 -79 c56 -43 98 -82 94 -85 -4 -4 -96 -35 -203 -69
-107 -34 -199 -63 -205 -65 -5 -2 96 -4 227 -5 l236 0 879 293 c483 162 1053
353 1267 425 214 72 394 131 401 131 7 0 11 -14 10 -36 0 -19 3 -38 7 -40 4
-3 8 15 8 40 0 40 3 46 24 52 14 3 27 13 31 22 5 13 3 14 -6 5 -13 -13 -39 -6
-39 11 0 6 -12 19 -25 29 -24 17 -25 17 -25 -2 0 -18 -3 -19 -30 -10 -36 13
-41 34 -5 25 14 -4 25 -2 25 3 0 9 -232 91 -258 91 -7 0 -10 -5 -7 -10 3 -5 0
-10 -8 -10 -10 0 -14 15 -16 50 -1 28 2 50 7 50 4 0 68 -20 142 -45 153 -51
165 -53 151 -26 -6 10 -30 24 -56 30 -43 11 -45 13 -45 47 0 27 4 35 14 31 8
-3 33 -11 56 -18 38 -12 41 -15 38 -41 -4 -26 -4 -27 13 -12 17 16 20 15 46
-15 15 -17 31 -31 35 -31 9 0 34 85 43 147 l6 41 -53 -15 c-29 -9 -55 -19 -58
-23 -11 -14 -39 -18 -43 -6 -4 10 1 12 16 10 21 -4 21 -4 2 4 -11 5 -44 17
-74 27 -60 20 -76 11 -64 -34 6 -23 4 -24 -28 -16 -43 10 -74 11 -124 1 -38
-7 -39 -7 -20 9 23 19 27 20 -66 -9 -42 -14 -43 -14 -12 -15 48 -2 48 -17 -1
-31 -38 -10 -52 -10 -97 5 -48 16 -51 19 -30 27 13 4 38 9 56 11 18 1 31 5 30
8 -2 3 60 22 138 43 78 21 188 51 245 66 56 15 105 24 108 19 8 -13 24 -11 24
4 0 8 73 32 204 67 113 29 203 57 200 61 -2 4 -18 10 -35 14 -44 10 -29 17 19
9 23 -4 39 -10 36 -15 -8 -14 -1 -12 171 35 111 30 154 46 140 51 -11 4 -30
11 -43 16 -30 12 -55 12 -47 -1 3 -5 17 -10 30 -10 13 0 27 -5 31 -12 5 -8 -2
-9 -26 -5 -18 4 -39 7 -47 7 -8 0 -12 3 -10 8 3 4 -21 7 -54 7 -32 0 -59 -3
-59 -7 0 -4 -9 -8 -20 -10 -35 -5 -24 -22 22 -36 l43 -12 -40 4 c-22 3 -56 7
-75 11 -26 5 -31 4 -20 -4 8 -6 25 -11 37 -11 12 0 25 -5 29 -11 5 -8 -6 -9
-37 -4 -24 4 -47 12 -50 17 -4 5 -27 4 -60 -5 l-54 -14 43 -13 c23 -7 40 -15
38 -17 -8 -8 -96 9 -90 18 7 13 0 12 -100 -15 -53 -14 -92 -29 -98 -39 -7 -14
-4 -17 19 -17 21 0 24 -3 15 -12 -17 -17 -68 2 -64 25 3 18 -23 24 -33 7 -9
-14 -58 -12 -74 2 -11 11 -12 9 -7 -7 5 -19 -15 -25 -297 -97 -166 -42 -310
-80 -319 -83 -16 -6 -18 0 -18 65 0 70 -1 72 -22 67 -13 -3 -83 -20 -157 -39
-126 -32 -137 -33 -177 -20 -40 13 -42 15 -31 39 9 19 8 26 -3 33 -20 13 -16
14 90 37 85 18 92 21 63 28 -18 4 -33 12 -33 17 0 6 10 8 23 4 12 -3 30 -6 40
-6 10 0 15 -4 12 -10 -7 -11 8 -11 45 -1 22 7 20 8 -19 15 -31 6 -39 11 -30
17 20 13 6 11 -110 -14 -104 -23 -104 -23 -72 -36 17 -8 30 -16 27 -18 -8 -8
-76 9 -70 18 7 12 2 11 -96 -11 -47 -11 -88 -20 -92 -20 -5 0 -8 34 -8 75 0
41 -3 75 -7 75 -5 0 -68 -12 -142 -26 -91 -18 -148 -24 -178 -19 -47 7 -50 25
-2 25 19 0 29 5 29 15 0 18 17 20 22 3 3 -8 9 -8 24 0 18 10 17 11 -10 22 -32
12 -61 6 -51 -10 3 -6 -4 -10 -17 -11 -13 0 -32 -3 -43 -5 -11 -2 -44 1 -72 7
l-53 12 0 69 c0 42 -4 68 -11 68 -6 0 -63 -9 -127 -21 -103 -18 -156 -20 -212
-6 -33 7 -80 38 -80 53 0 11 4 12 18 5 21 -11 111 -11 133 0 9 5 19 17 21 27
4 14 -7 25 -51 49 l-55 30 -48 -34 c-42 -30 -46 -37 -37 -55 12 -23 4 -51 -13
-46 -7 3 -35 -1 -63 -7 -63 -14 -68 -14 -137 10 -59 19 -69 28 -43 39 8 3 15
11 14 18 0 10 -2 10 -6 1 -2 -7 -11 -13 -19 -13 -8 0 -14 -5 -14 -10 0 -6 -10
-8 -22 -5 -20 4 -78 -29 -67 -39 2 -2 45 -18 96 -35 82 -29 100 -32 160 -26
37 3 86 10 108 15 22 5 52 10 67 10 26 0 27 -2 30 -67 l3 -67 42 -11 c23 -5
45 -14 50 -18 4 -5 3 -8 -2 -6 -6 1 -31 -1 -57 -5 -36 -6 -58 -4 -88 8 -52 21
-60 20 -60 -4 0 -16 7 -20 33 -20 39 0 70 -16 47 -24 -37 -11 -93 -14 -118 -5
-26 9 -27 12 -28 84 -1 42 -4 78 -7 81 -3 3 -78 -6 -167 -21 -183 -30 -214
-27 -216 23 -4 92 -12 180 -18 190 -4 6 -13 9 -21 5 -10 -3 -15 1 -15 12 0 12
6 16 19 12 15 -4 19 0 15 16 -2 11 4 27 14 34 16 14 16 14 -1 9 -10 -3 -29 -6
-43 -6 -18 0 -23 -5 -21 -21 1 -12 -4 -24 -12 -27 -10 -3 -12 1 -8 17 4 17 1
21 -19 21 -15 0 -24 6 -24 15 0 8 7 15 15 15 8 0 15 -6 15 -12 0 -9 3 -10 8
-2 11 17 60 26 65 11 3 -6 6 -2 6 10 1 16 -4 20 -18 16 -12 -3 -20 2 -24 16
-4 18 -2 19 14 10 16 -8 19 -6 19 9 0 20 1 20 -145 1 -72 -9 -87 -8 -133 9
-29 11 -52 17 -51 14z m181 -66 c5 -7 8 -4 8 7 0 23 24 17 28 -6 5 -26 -64
-24 -71 2 -4 15 -1 18 12 13 9 -3 19 -10 23 -16z m108 7 c0 -8 -12 -13 -30
-13 -18 0 -30 5 -30 13 0 8 12 14 30 14 18 0 30 -6 30 -14z m-159 -16 c-13
-13 -26 -3 -16 12 3 6 11 8 17 5 6 -4 6 -10 -1 -17z m199 -52 c0 -8 -4 -15
-10 -15 -5 0 -10 7 -10 15 0 8 5 15 10 15 6 0 10 -7 10 -15z m-70 -10 c0 -8
-9 -15 -19 -15 -11 0 -27 -3 -35 -6 -12 -5 -15 -2 -10 10 4 10 13 15 20 12 7
-3 16 -1 19 4 9 15 25 12 25 -5z m-80 -5 c0 -5 -4 -10 -10 -10 -5 0 -10 5 -10
10 0 6 5 10 10 10 6 0 10 -4 10 -10z m120 -32 c0 -4 -6 -8 -14 -8 -8 0 -21 -3
-30 -6 -10 -4 -16 -1 -16 8 0 10 11 15 30 15 17 0 30 -4 30 -9z m-110 -13 c0
-8 -7 -15 -15 -15 -8 0 -15 7 -15 15 0 8 7 15 15 15 8 0 15 -7 15 -15z m40 6
c0 -5 -7 -11 -15 -15 -9 -3 -15 0 -15 9 0 8 7 15 15 15 8 0 15 -4 15 -9z m110
-26 c0 -10 -10 -15 -30 -15 -16 0 -30 5 -30 11 0 6 9 8 20 4 11 -4 20 -2 20 4
0 6 5 11 10 11 6 0 10 -7 10 -15z m-70 -10 c0 -8 -7 -15 -15 -15 -8 0 -15 7
-15 15 0 8 7 15 15 15 8 0 15 -7 15 -15z m-80 -10 c0 -8 -7 -15 -15 -15 -9 0
-12 6 -9 15 4 8 10 15 15 15 5 0 9 -7 9 -15z m40 5 c0 -5 -7 -10 -15 -10 -8 0
-15 5 -15 10 0 6 7 10 15 10 8 0 15 -4 15 -10z m-80 -9 c0 -6 -4 -13 -10 -16
-5 -3 -10 1 -10 9 0 9 5 16 10 16 6 0 10 -4 10 -9z m160 -22 c0 -5 -7 -9 -15
-9 -15 0 -20 12 -9 23 8 8 24 -1 24 -14z m30 12 c0 -6 -4 -13 -10 -16 -5 -3
-10 1 -10 9 0 9 5 16 10 16 6 0 10 -4 10 -9z m-70 -10 c0 -6 -4 -13 -10 -16
-5 -3 -10 1 -10 9 0 9 5 16 10 16 6 0 10 -4 10 -9z m-78 -16 c0 -5 -5 -11 -11
-13 -6 -2 -11 4 -11 13 0 9 5 15 11 13 6 -2 11 -8 11 -13z m38 5 c0 -5 -4 -10
-10 -10 -5 0 -10 5 -10 10 0 6 5 10 10 10 6 0 10 -4 10 -10z m-70 -10 c0 -5
-7 -10 -15 -10 -8 0 -15 5 -15 10 0 6 7 10 15 10 8 0 15 -4 15 -10z m-40 -41
c0 -4 -18 0 -40 8 -22 9 -40 19 -40 24 0 4 18 0 40 -8 22 -9 40 -19 40 -24z
m190 26 c0 -8 -4 -15 -10 -15 -5 0 -10 7 -10 15 0 8 5 15 10 15 6 0 10 -7 10
-15z m40 6 c0 -5 -7 -11 -15 -15 -9 -3 -15 0 -15 9 0 8 7 15 15 15 8 0 15 -4
15 -9z m-110 -22 c0 -5 -7 -9 -15 -9 -15 0 -20 12 -9 23 8 8 24 -1 24 -14z
m30 12 c0 -6 -4 -13 -10 -16 -5 -3 -10 1 -10 9 0 9 5 16 10 16 6 0 10 -4 10
-9z m-72 -12 c-2 -6 -8 -10 -13 -10 -5 0 -11 4 -13 10 -2 6 4 11 13 11 9 0 15
-5 13 -11z m-78 -49 c0 -10 -43 5 -67 23 -28 21 -11 24 27 6 22 -11 40 -24 40
-29z m40 40 c0 -5 -7 -10 -15 -10 -8 0 -15 5 -15 10 0 6 7 10 15 10 8 0 15 -4
15 -10z m152 -15 c0 -5 -5 -11 -11 -13 -6 -2 -11 4 -11 13 0 9 5 15 11 13 6
-2 11 -8 11 -13z m38 5 c0 -5 -4 -10 -10 -10 -5 0 -10 5 -10 10 0 6 5 10 10
10 6 0 10 -4 10 -10z m-110 -21 c0 -5 -4 -9 -10 -9 -5 0 -10 7 -10 16 0 8 5
12 10 9 6 -3 10 -10 10 -16z m40 11 c0 -5 -7 -10 -15 -10 -8 0 -15 5 -15 10 0
6 7 10 15 10 8 0 15 -4 15 -10z m-80 -9 c0 -6 -4 -13 -10 -16 -5 -3 -10 1 -10
9 0 9 5 16 10 16 6 0 10 -4 10 -9z m-40 -11 c0 -5 -4 -10 -10 -10 -5 0 -10 5
-10 10 0 6 5 10 10 10 6 0 10 -4 10 -10z m158 -11 c-2 -6 -8 -10 -13 -10 -5 0
-11 4 -13 10 -2 6 4 11 13 11 9 0 15 -5 13 -11z m32 1 c0 -5 -4 -10 -10 -10
-5 0 -10 5 -10 10 0 6 5 10 10 10 6 0 10 -4 10 -10z m-110 -15 c0 -8 -4 -15
-10 -15 -5 0 -10 7 -10 15 0 8 5 15 10 15 6 0 10 -7 10 -15z m40 5 c0 -5 -4
-10 -10 -10 -5 0 -10 5 -10 10 0 6 5 10 10 10 6 0 10 -4 10 -10z m-119 -23
c-13 -13 -26 -3 -16 12 3 6 11 8 17 5 6 -4 6 -10 -1 -17z m49 19 c0 -2 -7 -9
-15 -16 -12 -10 -15 -10 -15 4 0 9 7 16 15 16 8 0 15 -2 15 -4z m1080 -60 c0
-2 3 -11 6 -19 5 -13 -1 -14 -36 -5 -29 8 -37 13 -28 19 13 9 58 12 58 5z
m2460 -6 l25 -8 -25 0 c-14 0 -36 4 -50 8 l-25 8 25 0 c14 0 36 -4 50 -8z
m-41 -16 c2 -2 2 -6 -1 -9 -9 -9 -88 7 -82 17 5 8 72 1 83 -8z m-3389 -8 c0
-3 -4 -8 -10 -11 -5 -3 -10 -1 -10 4 0 6 5 11 10 11 6 0 10 -2 10 -4z m-115
-15 c3 -5 1 -12 -5 -16 -5 -3 -10 1 -10 9 0 18 6 21 15 7z m40 -1 c-3 -5 -10
-10 -16 -10 -5 0 -9 5 -9 10 0 6 7 10 16 10 8 0 12 -4 9 -10z m-75 -10 c0 -5
-4 -10 -10 -10 -5 0 -10 5 -10 10 0 6 5 10 10 10 6 0 10 -4 10 -10z m1165 1
c19 -1 19 -2 2 -12 -26 -15 -136 -31 -169 -24 -40 9 -28 18 40 30 53 10 75 11
127 6z m-1205 -11 c0 -5 -4 -10 -10 -10 -5 0 -10 5 -10 10 0 6 5 10 10 10 6 0
10 -4 10 -10z m190 0 c0 -5 -5 -10 -11 -10 -5 0 -7 5 -4 10 3 6 8 10 11 10 2
0 4 -4 4 -10z m40 0 c0 -5 -4 -10 -10 -10 -5 0 -10 5 -10 10 0 6 5 10 10 10 6
0 10 -4 10 -10z m-155 -19 c3 -5 1 -12 -5 -16 -5 -3 -10 1 -10 9 0 18 6 21 15
7z m45 5 c0 -3 -4 -8 -10 -11 -5 -3 -10 -1 -10 4 0 6 5 11 10 11 6 0 10 -2 10
-4z m-80 -16 c0 -5 -4 -10 -10 -10 -5 0 -10 5 -10 10 0 6 5 10 10 10 6 0 10
-4 10 -10z m3212 4 c21 -4 35 -11 32 -16 -4 -5 -18 -7 -33 -3 -14 4 -31 8 -38
9 -19 3 -28 16 -12 16 8 0 31 -3 51 -6z m-3252 -14 c0 -5 -4 -10 -10 -10 -5 0
-10 5 -10 10 0 6 5 10 10 10 6 0 10 -4 10 -10z m600 -10 c0 -23 -1 -24 -35 -8
-24 11 -25 13 -8 19 31 13 43 10 43 -11z m1390 10 l25 -8 -25 0 c-14 0 -34 3
-45 8 l-20 9 20 -1 c11 0 31 -4 45 -8z m1215 -10 l30 -8 -30 0 c-16 0 -41 4
-55 8 l-25 8 25 0 c14 0 39 -4 55 -8z m-2975 -12 c0 -4 3 -7 8 -6 11 2 83 -14
79 -18 -2 -2 -29 -9 -61 -15 -48 -8 -65 -7 -102 7 -54 20 -56 30 -8 32 20 1
38 3 40 5 7 6 44 2 44 -5z m2900 -3 c37 -14 22 -19 -29 -9 -17 4 -31 10 -31
15 0 12 18 10 60 -6z m-1287 -6 c16 0 21 -9 15 -26 -7 -18 -94 -20 -133 -3
l-30 13 38 7 c20 4 40 10 44 14 4 4 17 4 28 1 11 -4 28 -7 38 -6z m-871 -12
c9 -1 16 -6 15 -11 -1 -5 12 -13 28 -16 26 -5 27 -7 10 -13 -53 -17 -83 -16
-140 8 -51 20 -56 24 -35 29 14 3 34 7 45 10 11 2 29 2 40 -1 11 -3 28 -5 37
-6z m-337 -17 c24 -9 17 -13 -60 -29 -67 -15 -105 -16 -135 -4 -23 10 -20 11
35 23 33 7 65 14 70 15 19 6 70 4 90 -5z m1050 -16 c0 -15 -6 -18 -30 -16 -16
2 -36 7 -45 12 -12 7 -11 10 10 18 36 15 65 8 65 -14z m1238 2 c25 -8 34 -15
25 -19 -8 -3 -21 -1 -29 4 -8 5 -25 9 -39 9 -20 0 -22 2 -10 10 8 5 15 10 15
10 0 0 17 -6 38 -14z m102 4 c-3 -5 -12 -10 -20 -10 -8 0 -17 5 -20 10 -4 6 5
10 20 10 15 0 24 -4 20 -10z m-1690 -32 c54 -15 52 -22 -12 -33 -43 -7 -153
20 -153 37 0 5 3 7 8 5 4 -3 16 -1 27 3 25 10 65 6 130 -12z m1520 7 c43 -15
33 -19 -27 -9 -21 4 -35 10 -32 15 7 12 12 11 59 -6z m-65 -20 c38 -15 26 -18
-32 -9 -21 4 -35 10 -32 15 7 12 22 10 64 -6z m-1061 -19 c23 -13 21 -14 -51
-31 -67 -16 -82 -17 -124 -5 l-49 14 35 8 c19 4 51 10 70 14 19 3 37 8 39 10
9 9 57 3 80 -10z m1016 -8 c7 -7 -3 -9 -30 -4 -22 3 -48 6 -58 6 -10 0 -15 5
-12 11 8 12 85 2 100 -13z m-76 -14 c2 -2 2 -7 -1 -10 -10 -9 -98 8 -92 18 5
8 82 2 93 -8z m-2259 -6 c0 -4 -5 -8 -11 -8 -5 0 -7 -4 -4 -10 3 -5 18 -10 33
-10 40 -1 7 -17 -50 -25 -38 -5 -55 -2 -99 21 l-54 28 35 7 c47 9 150 7 150
-3z m2173 -8 c14 0 18 -3 11 -10 -13 -13 -106 -1 -98 12 4 6 20 7 36 4 17 -3
40 -6 51 -6z m-1443 -10 c8 -5 12 -11 9 -15 -8 -8 -69 6 -69 16 0 12 41 11 60
-1z m1363 -11 c9 0 17 -5 17 -11 0 -7 -14 -8 -37 -4 -21 3 -46 6 -56 6 -11 0
-15 5 -11 11 4 6 19 8 38 5 17 -4 39 -7 49 -7z m-1430 -13 c21 -8 47 -12 57
-9 14 4 20 0 20 -11 0 -9 6 -16 13 -17 10 0 -243 -60 -311 -74 -13 -2 -49 7
-79 21 -31 13 -57 24 -59 24 -2 0 -4 -11 -4 -25 0 -29 2 -29 -43 -10 -20 8
-49 15 -64 16 -27 0 -27 1 -5 9 12 5 29 7 37 4 8 -4 31 2 51 11 20 9 39 13 43
9 3 -5 24 -6 46 -3 22 3 34 7 27 8 -7 0 -10 6 -7 11 4 7 26 8 56 4 40 -5 49
-4 47 7 -2 11 8 13 45 11 37 -2 47 0 47 12 0 20 31 20 83 2z m1322 -6 c3 -5
16 -10 27 -10 12 0 19 -3 15 -6 -9 -10 -108 7 -101 17 7 12 51 11 59 -1z
m-899 -27 c-3 -3 -13 -2 -23 2 -17 7 -17 8 2 15 19 7 34 -5 21 -17z m1296 5
c-7 -7 -12 -8 -12 -2 0 14 12 26 19 19 2 -3 -1 -11 -7 -17z m42 11 c-2 -4 4
-10 13 -12 14 -4 14 -5 -3 -6 -12 0 -24 5 -27 12 -3 8 1 14 9 14 7 0 11 -4 8
-8z m-1366 -24 c30 -14 64 -25 75 -26 19 -1 18 -3 -8 -14 -44 -20 -72 -18
-149 12 l-70 28 40 12 c53 16 52 16 112 -12z m856 11 c34 -12 37 -14 18 -20
-20 -7 -62 11 -62 26 0 10 -2 10 44 -6z m-3 -36 c20 -11 26 -35 11 -44 -10 -6
-70 10 -92 24 -34 23 41 41 81 20z m-1171 -40 c0 -13 -7 -20 -20 -20 -19 0
-27 20 -13 33 13 14 33 6 33 -13z m-595 1 c21 -4 26 -9 17 -15 -17 -11 -104 2
-97 15 7 10 34 10 80 0z m205 -32 c0 -5 -4 -9 -10 -9 -5 0 -10 7 -10 16 0 8 5
12 10 9 6 -3 10 -10 10 -16z m298 3 c-2 -11 -14 -18 -33 -20 -17 -2 -36 -8
-42 -14 -10 -8 -13 -4 -13 15 0 26 5 28 68 35 18 1 23 -3 20 -16z m-250 -21
c3 -8 -1 -12 -9 -9 -7 2 -15 10 -17 17 -3 8 1 12 9 9 7 -2 15 -10 17 -17z
m102 -5 c0 -8 -7 -17 -16 -20 -23 -9 -24 -8 -24 14 0 13 7 20 20 20 11 0 20
-6 20 -14z m1485 2 l40 -11 -75 -24 c-41 -12 -83 -23 -93 -23 -23 0 -97 23
-97 30 0 9 111 38 150 39 19 0 53 -4 75 -11z m-1245 -22 c0 -8 -7 -16 -15 -20
-10 -4 -15 1 -15 14 0 11 7 20 15 20 8 0 15 -6 15 -14z m-90 -37 c0 -14 -5
-19 -14 -16 -8 3 -17 3 -20 -1 -4 -3 -18 -8 -31 -9 -41 -6 -30 24 13 35 53 14
52 14 52 -9z m1640 1 c12 -8 9 -10 -12 -10 -15 0 -30 -4 -33 -10 -3 -5 -17
-10 -30 -10 -13 0 -27 5 -30 10 -4 6 5 10 19 10 14 0 26 5 26 10 0 13 40 13
60 0z m-1801 -41 c-24 -14 -36 11 -14 27 18 13 20 13 23 -2 2 -9 -2 -20 -9
-25z m1241 -4 l0 -25 -36 17 c-30 15 -32 18 -17 24 37 15 53 10 53 -16z m644
16 c14 -5 16 -10 7 -15 -16 -10 -63 2 -56 14 7 12 22 12 49 1z m-1297 -7 c-3
-3 -12 -4 -19 -1 -8 3 -5 6 6 6 11 1 17 -2 13 -5z m612 -34 c30 -17 69 -33 85
-36 43 -7 42 -10 -9 -26 -44 -15 -47 -15 -133 19 -101 40 -119 53 -75 53 18 0
35 5 38 10 10 17 38 11 94 -20z m635 24 c9 -3 14 -10 11 -14 -6 -9 -53 -1 -61
11 -6 10 26 12 50 3z m106 -46 c0 -12 -68 -9 -75 2 -4 7 8 10 34 8 23 -2 41
-6 41 -10z m35 -18 c3 -5 -1 -10 -10 -10 -9 0 -13 5 -10 10 3 6 8 10 10 10 2
0 7 -4 10 -10z m-102 -27 c-7 -2 -19 -2 -25 0 -7 3 -2 5 12 5 14 0 19 -2 13
-5z m-96 -29 c-3 -3 -12 -4 -19 -1 -8 3 -5 6 6 6 11 1 17 -2 13 -5z m-87 -28
c0 -2 -9 -6 -20 -9 -11 -3 -18 -1 -14 4 5 9 34 13 34 5z m-105 -36 c-27 -12
-43 -12 -25 0 8 5 22 9 30 9 10 0 8 -3 -5 -9z m-95 -30 c-8 -5 -22 -10 -30
-10 -13 0 -13 1 0 10 8 5 22 10 30 10 13 0 13 -1 0 -10z m-107 -37 c-7 -2 -19
-2 -25 0 -7 3 -2 5 12 5 14 0 19 -2 13 -5z m-108 -33 c-27 -12 -43 -12 -25 0
8 5 22 9 30 9 10 0 8 -3 -5 -9z m-99 -29 c-8 -12 -46 -21 -46 -11 0 5 8 11 18
13 29 8 33 7 28 -2z m-116 -41 c-8 -5 -24 -9 -35 -9 l-20 0 20 9 c11 5 27 9
35 9 13 1 13 0 0 -9z m-120 -40 c-8 -5 -24 -9 -35 -9 l-20 0 20 9 c11 5 27 9
35 9 13 1 13 0 0 -9z m-120 -40 c-8 -5 -22 -10 -30 -10 -13 0 -13 1 0 10 8 5
22 10 30 10 13 0 13 -1 0 -10z m-125 -40 c-11 -5 -27 -9 -35 -9 -13 -1 -13 0
0 9 8 5 24 9 35 9 l20 0 -20 -9z m-120 -40 c-11 -5 -29 -9 -40 -9 l-20 0 20 9
c11 5 29 9 40 9 l20 0 -20 -9z m-125 -35 c0 -8 -52 -26 -58 -20 -3 2 6 9 19
14 28 11 39 13 39 6z m-132 -50 c-2 -3 -20 -7 -39 -10 l-34 -5 35 14 c32 12
50 13 38 1z m-167 -51 c-18 -8 -36 -13 -39 -10 -6 7 37 25 58 25 8 -1 0 -7
-19 -15z m-731 -19 c14 -16 10 -18 -14 -9 -9 3 -16 10 -16 15 0 14 16 11 30
-6z m585 6 c8 -13 -5 -19 -56 -27 -49 -7 -46 4 4 23 41 15 45 15 52 4z m-616
-25 c10 -11 8 -16 -8 -21 -22 -7 -61 10 -61 25 0 15 56 12 69 -4z m172 -15
l21 -19 -21 -7 c-19 -6 -61 12 -61 27 0 3 8 9 18 11 9 3 18 5 20 6 2 0 12 -8
23 -18z m445 3 c-22 -8 -41 -12 -44 -9 -7 6 39 24 63 24 11 0 3 -7 -19 -15z
m-506 -29 c16 -19 0 -19 -26 0 -16 12 -16 14 -3 15 9 0 22 -7 29 -15z m351
-20 c-39 -18 -41 -18 -41 -6 0 10 23 18 55 19 13 1 8 -4 -14 -13z m82 -2 c9
-8 -47 -33 -74 -33 -32 0 -31 19 3 29 41 12 63 13 71 4z m-229 -12 c9 -14 -81
-40 -94 -27 -7 7 0 14 27 22 49 15 61 16 67 5z m-194 -21 c0 -5 -5 -10 -11
-10 -5 0 -7 5 -4 10 3 6 8 10 11 10 2 0 4 -4 4 -10z m190 -15 c-46 -18 -61
-18 -30 0 14 8 34 14 45 14 13 0 8 -5 -15 -14z m-140 -44 c-8 -5 -28 -11 -45
-14 l-30 -6 30 14 c34 16 72 21 45 6z m50 -16 c-1 -14 -71 -37 -90 -30 -12 5
-10 9 10 20 14 7 28 11 32 9 3 -2 10 0 13 6 8 13 36 9 35 -5z m-210 -34 c0 -5
-11 -12 -24 -15 -13 -3 -31 -9 -40 -12 -9 -3 -16 -2 -16 3 0 5 15 14 33 20 44
14 47 14 47 4z"/>
<path d="M6014 1920 c-6 -30 -7 -51 -1 -53 5 -1 9 -26 9 -55 -1 -46 2 -52 20
-52 18 0 20 -4 14 -40 l-6 -40 37 0 c54 0 113 18 113 35 0 11 -6 12 -26 5 -20
-8 -29 -6 -42 6 -15 15 -14 16 6 10 11 -4 30 -2 41 3 12 7 21 7 23 1 7 -20 83
-27 139 -12 29 8 61 14 69 14 8 -1 34 4 57 10 47 12 46 10 58 139 l6 66 -55
-1 c-31 -1 -56 -3 -56 -6 0 -8 -138 -32 -148 -26 -5 3 -29 8 -53 11 -24 3 -74
10 -111 14 -37 5 -71 11 -75 14 -5 3 -14 -16 -19 -43z m50 24 c25 -10 19 -22
-9 -16 -14 2 -22 8 -19 13 6 11 8 11 28 3z m123 -20 c-3 -3 -12 -4 -19 -1 -8
3 -5 6 6 6 11 1 17 -2 13 -5z m8 -123 c3 -5 1 -13 -5 -16 -15 -9 -43 3 -35 15
8 13 32 13 40 1z m65 -18 c0 -7 -9 -13 -20 -13 -11 0 -20 6 -20 14 0 9 9 14
20 13 11 -1 20 -7 20 -14z m-60 -23 c-8 -5 -27 -10 -42 -10 -43 0 -55 -9 -50
-36 5 -27 -9 -32 -28 -9 -19 23 -8 49 25 56 50 11 112 10 95 -1z"/>
<path d="M7166 1941 c19 -18 34 -19 34 0 0 6 -4 7 -10 4 -5 -3 -10 -1 -10 4 0
6 -8 11 -17 11 -15 0 -14 -2 3 -19z"/>
<path d="M1422 1936 c7 -8 15 -12 17 -11 5 6 -10 25 -20 25 -5 0 -4 -6 3 -14z"/>
<path d="M2680 1902 c0 -29 5 -52 10 -52 6 0 8 19 6 46 -7 64 -16 68 -16 6z"/>
<path d="M4558 1943 c10 -4 10 -8 1 -19 -15 -18 -2 -18 17 0 19 19 18 22 -8
23 -13 0 -17 -1 -10 -4z"/>
<path d="M5061 1934 c0 -11 3 -14 6 -6 3 7 2 16 -1 19 -3 4 -6 -2 -5 -13z"/>
<path d="M6625 1940 c-3 -6 1 -7 9 -4 18 7 21 14 7 14 -6 0 -13 -4 -16 -10z"/>
<path d="M4421 1933 c0 -4 4 -17 9 -28 8 -19 9 -19 9 2 1 12 -3 25 -9 28 -5 3
-10 3 -9 -2z"/>
<path d="M6805 1927 c-27 -9 -31 -15 -31 -48 -1 -22 2 -39 7 -39 5 0 9 12 9
27 0 18 10 35 28 50 15 12 25 22 22 21 -3 0 -19 -5 -35 -11z"/>
<path d="M7287 1919 c4 -13 9 -17 15 -11 11 11 3 32 -12 32 -4 0 -6 -9 -3 -21z"/>
<path d="M1510 1906 c14 -12 27 -19 28 -15 2 5 10 9 18 9 8 0 14 5 14 10 0 7
-6 7 -19 0 -15 -7 -23 -6 -35 5 -8 8 -18 15 -23 15 -4 0 4 -11 17 -24z"/>
<path d="M2530 1922 c0 -7 -4 -10 -10 -7 -5 3 -10 2 -10 -2 0 -13 40 -34 51
-27 5 3 16 0 24 -6 18 -15 38 -9 41 13 2 19 -11 23 -21 7 -8 -14 -46 -2 -62
19 -9 11 -12 12 -13 3z"/>
<path d="M4381 1914 c0 -11 3 -14 6 -6 3 7 2 16 -1 19 -3 4 -6 -2 -5 -13z"/>
<path d="M7006 1914 c-24 -24 -19 -30 7 -8 12 10 24 20 26 21 2 2 -1 3 -7 3
-6 0 -18 -7 -26 -16z"/>
<path d="M7211 1917 c0 -10 -5 -16 -10 -12 -5 3 -12 1 -15 -4 -6 -9 23 -25 31
-17 3 2 3 15 0 28 -3 15 -5 17 -6 5z"/>
<path d="M1325 1910 c-16 -7 -17 -9 -3 -9 9 -1 20 4 23 9 7 11 7 11 -20 0z"/>
<path d="M5252 1900 c0 -14 2 -19 5 -12 2 6 2 18 0 25 -3 6 -5 1 -5 -13z"/>
<path d="M6964 1909 c-3 -6 -15 -9 -25 -6 -11 3 -19 1 -20 -4 -3 -37 -1 -80 4
-86 4 -3 7 10 7 30 0 30 4 38 24 43 14 3 27 12 30 20 6 16 -10 19 -20 3z"/>
<path d="M1234 1889 c-17 -19 -19 -19 -31 -3 -11 15 -12 14 -10 -5 1 -11 7
-21 14 -21 7 0 13 -8 14 -17 0 -14 2 -15 6 -3 3 8 15 27 25 43 23 32 10 37
-18 6z"/>
<path d="M6557 1890 c3 -11 7 -20 9 -20 2 0 4 9 4 20 0 11 -4 20 -9 20 -5 0
-7 -9 -4 -20z"/>
<path d="M1392 1888 c-7 -7 -11 -23 -11 -37 l2 -26 4 25 c3 13 12 30 21 37 10
7 12 13 7 13 -6 0 -16 -5 -23 -12z"/>
<path d="M5135 1884 c36 -28 61 -36 30 -10 -16 14 -34 25 -40 25 -5 0 -1 -7
10 -15z"/>
<path d="M7110 1885 c-19 -10 -27 -10 -32 -2 -4 7 -7 -4 -6 -24 1 -20 -2 -41
-6 -47 -4 -7 -1 -12 7 -12 8 0 15 6 14 13 -1 34 6 47 36 66 36 23 26 28 -13 6z"/>
<path d="M1285 1880 c3 -5 8 -10 11 -10 2 0 4 5 4 10 0 6 -5 10 -11 10 -5 0
-7 -4 -4 -10z"/>
<path d="M6690 1882 c0 -17 21 -25 31 -13 5 6 6 9 3 6 -4 -3 -13 0 -21 6 -9 8
-13 8 -13 1z"/>
<path d="M1256 1871 c-4 -5 -2 -12 4 -16 5 -3 10 -19 10 -36 0 -16 4 -29 9
-29 8 0 -2 76 -12 86 -3 3 -8 1 -11 -5z"/>
<path d="M2450 1863 c0 -13 5 -23 10 -23 6 0 10 -8 11 -17 0 -10 3 -13 5 -7 3
6 -2 24 -11 40 -13 26 -15 27 -15 7z"/>
<path d="M7130 1848 c0 -30 1 -30 14 -13 14 19 11 45 -5 45 -5 0 -9 -14 -9
-32z"/>
<path d="M5226 1855 c-3 -9 0 -15 9 -15 16 0 20 16 6 24 -5 3 -11 -1 -15 -9z"/>
<path d="M6620 1860 c0 -5 5 -10 10 -10 6 0 10 5 10 10 0 6 -4 10 -10 10 -5 0
-10 -4 -10 -10z"/>
<path d="M6840 1862 c1 -20 16 -29 27 -17 9 10 8 14 -8 18 -10 3 -19 2 -19 -1z"/>
<path d="M7236 1853 c-6 -15 -8 -15 -16 -3 -6 8 -10 11 -10 5 0 -5 4 -16 9
-24 11 -17 41 -7 41 13 0 22 -17 28 -24 9z"/>
<path d="M251 1849 c-1 -19 44 -71 53 -62 3 4 -3 13 -15 21 -11 8 -24 24 -29
36 -6 14 -9 16 -9 5z"/>
<path d="M1133 1844 c-15 -16 -16 -24 -4 -24 8 0 24 30 19 35 -2 2 -9 -3 -15
-11z"/>
<path d="M2495 1850 c-3 -5 -1 -10 4 -10 6 0 11 5 11 10 0 6 -2 10 -4 10 -3 0
-8 -4 -11 -10z"/>
<path d="M1050 1834 c0 -8 10 -14 24 -14 15 0 26 -7 29 -17 4 -16 5 -16 6 -1
0 9 -12 23 -29 32 -26 12 -30 12 -30 0z"/>
<path d="M6701 1834 c0 -11 3 -14 6 -6 3 7 2 16 -1 19 -3 4 -6 -2 -5 -13z"/>
<path d="M88 1826 c-23 -17 -23 -32 1 -39 14 -3 18 -1 14 10 -3 8 3 20 13 28
15 11 16 14 4 14 -8 0 -23 -6 -32 -13z"/>
<path d="M514 1824 c-15 -10 -20 -22 -16 -39 2 -14 8 -25 12 -25 4 0 5 11 2
25 -2 14 0 25 6 25 5 0 12 7 16 15 6 18 7 18 -20 -1z"/>
<path d="M6622 1820 c0 -14 2 -19 5 -12 2 6 2 18 0 25 -3 6 -5 1 -5 -13z"/>
<path d="M6998 1813 c4 -20 7 -23 10 -10 2 9 8 17 13 17 6 0 7 5 4 10 -14 22
-32 10 -27 -17z"/>
<path d="M4845 1820 c-9 -14 3 -27 30 -32 14 -2 20 3 20 17 0 22 -38 34 -50
15z m45 -10 c0 -5 -7 -10 -15 -10 -8 0 -15 5 -15 10 0 6 7 10 15 10 8 0 15 -4
15 -10z"/>
<path d="M5470 1821 c0 -6 5 -11 10 -11 6 0 10 -6 10 -14 0 -10 -7 -12 -22 -8
-22 5 -22 5 -5 -12 11 -12 15 -26 11 -41 -12 -47 -9 -105 4 -110 84 -32 305
-47 369 -24 28 9 31 15 36 65 3 31 12 63 19 72 10 12 10 14 0 8 -10 -6 -11 -1
-6 18 7 30 -3 51 -19 38 -7 -5 -39 -10 -72 -11 -33 -1 -82 -4 -110 -7 -53 -6
-189 18 -212 37 -9 8 -13 8 -13 0z m80 -49 c0 -8 -3 -12 -7 -9 -3 4 -16 -1
-27 -10 -16 -14 -18 -15 -8 -2 7 9 10 23 6 32 -4 12 -1 14 15 10 12 -3 21 -12
21 -21z m75 -2 c16 -7 13 -9 -17 -9 -20 -1 -40 4 -43 9 -7 12 32 12 60 0z"/>
<path d="M7327 1809 c-7 -27 -1 -37 14 -22 7 7 8 17 2 28 -9 15 -11 15 -16 -6z"/>
<path d="M7450 1811 c0 -13 5 -18 13 -15 7 2 21 -1 30 -9 15 -11 16 -17 7 -42
-12 -31 -6 -60 9 -50 6 3 17 -7 25 -22 11 -20 15 -23 16 -10 0 9 5 17 11 17 5
0 7 5 4 11 -4 6 -13 8 -20 5 -22 -8 -34 17 -27 53 8 38 38 64 50 44 6 -10 16
-9 45 4 20 10 37 21 37 25 0 11 -7 10 -40 -7 -28 -14 -34 -13 -31 8 2 12 -9 8
-41 -14 l-30 -22 -29 22 c-28 21 -29 21 -29 2z"/>
<path d="M4916 1803 c-7 -18 9 -33 37 -33 22 0 23 36 1 44 -24 9 -31 7 -38
-11z m44 -13 c0 -5 -9 -6 -20 -3 -11 3 -17 9 -15 14 7 10 35 1 35 -11z"/>
<path d="M5190 1807 c0 -9 -8 -21 -17 -26 -17 -10 -17 -10 0 -11 9 0 17 -4 17
-10 0 -5 -9 -10 -19 -10 -20 0 -35 -25 -25 -41 6 -11 -26 -12 -42 -1 -6 4 -13
15 -17 24 -5 15 -1 17 26 12 l32 -5 -35 14 c-42 16 -50 13 -50 -18 0 -22 -2
-23 -32 -14 -40 11 -48 11 -48 1 0 -4 8 -8 18 -8 9 -1 47 -8 84 -16 61 -13 74
-13 136 3 37 9 93 20 124 24 47 6 56 10 55 26 -1 10 -6 19 -11 19 -6 0 -5 5 2
12 21 21 14 23 -65 23 -43 0 -90 4 -105 9 -22 6 -28 5 -28 -7z m191 -20 c-6
-8 -8 -17 -4 -21 4 -4 -1 -4 -11 0 -12 5 -17 4 -13 -3 3 -5 0 -10 -8 -10 -12
0 -12 3 -2 16 15 20 29 31 41 31 5 0 3 -6 -3 -13z m-91 -26 c0 -13 -51 -32
-71 -26 -34 11 -21 28 16 21 28 -6 35 -4 35 9 0 9 5 13 10 10 6 -3 10 -10 10
-14z"/>
<path d="M930 1785 c-5 -14 -16 -25 -23 -25 -20 0 -51 -36 -38 -45 6 -3 11
-22 11 -41 0 -19 5 -34 10 -34 6 0 8 20 4 55 -7 56 -3 62 37 57 4 -1 9 12 11
28 6 37 1 38 -12 5z"/>
<path d="M4988 1793 c-10 -12 -9 -18 7 -29 28 -21 45 -17 45 10 0 29 -33 41
-52 19z m42 -13 c0 -5 -7 -10 -15 -10 -8 0 -15 5 -15 10 0 6 7 10 15 10 8 0
15 -4 15 -10z"/>
<path d="M327 1793 c-4 -3 -7 -20 -7 -36 0 -39 11 -28 14 12 2 34 2 34 -7 24z"/>
<path d="M2518 1775 c4 -21 10 -25 36 -24 30 2 30 2 4 6 -16 2 -28 11 -28 18
0 8 -4 16 -9 19 -4 3 -6 -6 -3 -19z"/>
<path d="M5110 1780 c-18 -12 -2 -12 25 0 13 6 15 9 5 9 -8 0 -22 -4 -30 -9z"/>
<path d="M794 1767 c3 -10 6 -23 6 -28 0 -5 6 -9 13 -9 7 0 18 -12 25 -27 8
-19 11 -21 8 -7 -2 12 5 32 15 45 10 13 19 27 19 32 0 16 -30 6 -44 -15 -17
-23 -17 -23 -35 7 -10 17 -12 17 -7 2z"/>
<path d="M7921 1762 c-6 -11 -6 -24 0 -33 5 -7 6 -27 3 -44 -4 -23 -3 -26 5
-15 6 8 11 23 11 32 0 9 6 18 13 21 7 3 2 9 -13 15 -22 9 -23 11 -7 17 18 8
24 25 7 25 -5 0 -14 -8 -19 -18z"/>
<path d="M0 1751 c0 -25 6 -27 13 -6 4 8 2 17 -3 20 -6 4 -10 -3 -10 -14z"/>
<path d="M1660 1743 c0 -16 5 -68 11 -118 19 -162 19 -158 -1 -177 -18 -17
-19 -16 -30 35 -6 29 -15 87 -20 131 -5 43 -11 80 -12 82 -2 1 -42 -4 -91 -13
l-87 -14 -57 30 c-31 17 -58 29 -60 28 -2 -2 3 -33 11 -68 8 -35 14 -59 15
-53 2 21 81 -26 81 -48 0 -16 -3 -18 -13 -9 -8 6 -17 8 -20 4 -4 -3 -7 -1 -7
5 0 7 -7 12 -15 12 -8 0 -15 5 -15 10 0 6 -5 10 -11 10 -7 0 -9 -10 -4 -27 13
-54 17 -146 6 -139 -8 5 -9 -6 -6 -36 9 -68 11 -72 83 -120 l67 -46 118 21
c112 20 118 22 113 43 -5 17 -1 23 17 28 33 9 35 8 42 -14 8 -25 32 -25 140
-2 65 14 79 21 77 35 -4 23 8 21 62 -7 62 -33 58 -24 -7 17 l-53 34 -14 89
c-7 49 -14 106 -16 126 -1 20 -6 62 -10 94 l-7 56 -41 -6 c-128 -19 -130 -19
-184 8 -28 14 -54 26 -57 26 -3 0 -5 -12 -5 -27z m46 -28 c14 -13 13 -15 -5
-15 -12 0 -21 6 -21 15 0 8 3 15 6 15 3 0 12 -7 20 -15z m234 -26 c0 -27 -17
-23 -22 5 -4 17 -1 23 9 19 7 -3 13 -14 13 -24z m-180 -6 c0 -13 -3 -13 -15
-3 -8 7 -12 16 -9 21 8 13 24 1 24 -18z m-350 -35 c0 -5 4 -7 9 -4 5 4 7 -3 4
-14 -3 -12 -8 -19 -12 -18 -3 2 -19 10 -36 18 -35 17 -45 28 -45 52 0 16 3 16
40 -3 22 -12 40 -25 40 -31z m446 14 c-4 -3 -12 0 -19 7 -9 9 -9 14 3 21 11 7
16 5 18 -6 2 -9 1 -18 -2 -22z m54 34 c0 -15 -14 -35 -21 -30 -15 9 -10 34 6
34 8 0 15 -2 15 -4z m-90 -26 c0 -11 -7 -20 -15 -20 -15 0 -21 21 -8 33 12 13
23 7 23 -13z m-220 -31 c0 -18 -2 -19 -15 -9 -15 12 -12 30 6 30 5 0 9 -10 9
-21z m-84 0 c3 -6 1 -16 -5 -22 -9 -9 -14 -8 -21 3 -9 15 -4 30 10 30 5 0 12
-5 16 -11z m44 -4 c0 -8 -7 -15 -15 -15 -8 0 -15 7 -15 15 0 8 7 15 15 15 8 0
15 -7 15 -15z m-90 -10 c0 -8 -7 -15 -15 -15 -8 0 -15 7 -15 15 0 8 7 15 15
15 8 0 15 -7 15 -15z m440 -16 c0 -11 -4 -17 -10 -14 -5 3 -10 13 -10 21 0 8
5 14 10 14 6 0 10 -9 10 -21z m40 6 c0 -8 -4 -15 -10 -15 -5 0 -10 7 -10 15 0
8 5 15 10 15 6 0 10 -7 10 -15z m-120 -21 c0 -8 -7 -14 -15 -14 -15 0 -21 21
-9 33 10 9 24 -2 24 -19z m40 10 c0 -17 -22 -14 -28 4 -2 7 3 12 12 12 9 0 16
-7 16 -16z m-305 -54 c-5 -8 -11 -8 -17 -2 -6 6 -7 16 -3 22 5 8 11 8 17 2 6
-6 7 -16 3 -22z m45 15 c0 -8 -4 -15 -10 -15 -5 0 -10 7 -10 15 0 8 5 15 10
15 6 0 10 -7 10 -15z m-85 -13 c0 -18 -20 -15 -23 4 -3 10 1 15 10 12 7 -3 13
-10 13 -16z m-45 -7 c0 -8 -7 -15 -15 -15 -8 0 -15 7 -15 15 0 8 7 15 15 15 8
0 15 -7 15 -15z m480 0 c0 -8 -4 -15 -9 -15 -13 0 -22 16 -14 24 11 11 23 6
23 -9z m-80 -15 c0 -13 -5 -18 -15 -14 -16 7 -19 17 -8 27 12 13 23 7 23 -13z
m40 5 c0 -8 -4 -15 -9 -15 -5 0 -11 7 -15 15 -3 9 0 15 9 15 8 0 15 -7 15 -15z
m-80 -10 c0 -8 -7 -15 -15 -15 -8 0 -15 7 -15 15 0 8 7 15 15 15 8 0 15 -7 15
-15z m-460 -7 c0 -6 3 -8 7 -5 7 8 33 -11 33 -24 0 -15 -27 -10 -44 7 -18 18
-21 34 -6 34 6 0 10 -5 10 -12z m236 -35 c-10 -10 -19 5 -10 18 6 11 8 11 12
0 2 -7 1 -15 -2 -18z m-36 1 c0 -9 -5 -14 -12 -12 -18 6 -21 28 -4 28 9 0 16
-7 16 -16z m-90 -14 c0 -21 -15 -27 -25 -10 -7 12 2 30 16 30 5 0 9 -9 9 -20z
m40 5 c0 -8 -4 -15 -10 -15 -5 0 -10 7 -10 15 0 8 5 15 10 15 6 0 10 -7 10
-15z m435 -15 c-6 -9 -9 -9 -16 1 -10 17 0 34 13 21 6 -6 7 -16 3 -22z m-35 5
c0 -8 -7 -15 -15 -15 -8 0 -15 7 -15 15 0 8 7 15 15 15 8 0 15 -7 15 -15z
m-87 -21 c-4 -10 -9 -12 -15 -6 -12 12 -1 35 12 27 5 -3 6 -13 3 -21z m47 10
c0 -9 -5 -14 -12 -12 -18 6 -21 28 -4 28 9 0 16 -7 16 -16z m-486 -15 c20 -12
36 -27 36 -35 0 -17 -65 19 -74 41 -7 19 -4 19 38 -6z m226 -24 c0 -8 -4 -15
-10 -15 -5 0 -10 7 -10 15 0 8 5 15 10 15 6 0 10 -7 10 -15z m-94 -22 c-10
-10 -19 5 -10 18 6 11 8 11 12 0 2 -7 1 -15 -2 -18z m54 17 c0 -5 -7 -10 -15
-10 -8 0 -15 5 -15 10 0 6 7 10 15 10 8 0 15 -4 15 -10z m-90 -15 c0 -8 -4
-15 -9 -15 -13 0 -22 16 -14 24 11 11 23 6 23 -9z m287 8 c-10 -10 -107 -21
-107 -12 0 4 8 10 18 12 28 8 96 8 89 0z"/>
<path d="M7251 1743 c1 -17 3 -21 6 -10 2 9 9 17 14 17 6 0 7 5 4 10 -12 19
-25 10 -24 -17z"/>
<path d="M7321 1754 c-1 -12 6 -27 14 -34 8 -7 16 -27 16 -44 2 -27 2 -28 6
-6 3 14 14 32 25 41 19 15 19 16 1 34 -16 17 -18 17 -21 2 -5 -24 -21 -21 -32
6 -9 22 -9 22 -9 1z"/>
<path d="M115 1750 c3 -5 8 -10 11 -10 2 0 4 5 4 10 0 6 -5 10 -11 10 -5 0 -7
-4 -4 -10z"/>
<path d="M4648 1753 c7 -3 16 -2 19 1 4 3 -2 6 -13 5 -11 0 -14 -3 -6 -6z"/>
<path d="M140 1727 c0 -10 5 -15 10 -12 6 3 10 -1 10 -9 0 -9 4 -16 9 -16 5 0
7 9 4 21 -4 12 0 25 8 30 10 6 6 8 -13 7 -20 -2 -28 -8 -28 -21z"/>
<path d="M604 1737 c3 -10 6 -23 6 -28 0 -5 7 -9 15 -9 20 0 19 7 -6 33 -18
18 -21 19 -15 4z"/>
<path d="M4895 1740 c-3 -5 -2 -10 4 -10 5 0 13 5 16 10 3 6 2 10 -4 10 -5 0
-13 -4 -16 -10z"/>
<path d="M6515 1730 c-38 -10 -64 -19 -57 -19 6 -1 12 -8 12 -16 0 -8 3 -15 8
-15 20 -1 222 56 222 62 0 14 -114 7 -185 -12z"/>
<path d="M7419 1743 c-1 -5 -3 -24 -4 -43 -3 -31 -2 -33 8 -12 5 12 13 22 18
22 4 0 5 9 2 20 -5 19 -22 28 -24 13z"/>
<path d="M7670 1720 c4 -14 5 -32 3 -40 -1 -8 4 -1 12 15 19 40 18 51 -4 51
-15 0 -17 -5 -11 -26z"/>
<path d="M2541 1724 c0 -11 3 -14 6 -6 3 7 2 16 -1 19 -3 4 -6 -2 -5 -13z"/>
<path d="M4538 1733 c7 -3 16 -2 19 1 4 3 -2 6 -13 5 -11 0 -14 -3 -6 -6z"/>
<path d="M4940 1730 c8 -5 20 -10 25 -10 6 0 3 5 -5 10 -8 5 -19 10 -25 10 -5
0 -3 -5 5 -10z"/>
<path d="M7857 1724 c-15 -8 -32 -12 -37 -9 -5 3 -14 -14 -21 -37 -6 -24 -13
-46 -16 -50 -2 -5 3 -8 11 -8 11 0 16 10 16 34 0 34 13 46 47 46 10 0 13 -5 8
-17 -4 -10 -9 -24 -12 -30 -3 -8 3 -13 14 -13 15 0 18 7 17 38 -1 20 3 43 9
50 13 16 -2 15 -36 -4z"/>
<path d="M4478 1723 c7 -3 16 -2 19 1 4 3 -2 6 -13 5 -11 0 -14 -3 -6 -6z"/>
<path d="M4575 1720 c-3 -5 -1 -10 4 -10 6 0 11 5 11 10 0 6 -2 10 -4 10 -3 0
-8 -4 -11 -10z"/>
<path d="M2441 1704 c9 -10 19 -26 22 -34 4 -10 6 -8 6 7 1 12 6 24 11 26 6 3
5 4 -2 3 -7 -2 -22 1 -33 7 -19 9 -19 9 -4 -9z"/>
<path d="M4418 1713 c7 -3 16 -2 19 1 4 3 -2 6 -13 5 -11 0 -14 -3 -6 -6z"/>
<path d="M4515 1710 c-3 -5 -1 -10 4 -10 6 0 11 5 11 10 0 6 -2 10 -4 10 -3 0
-8 -4 -11 -10z"/>
<path d="M7600 1700 c-18 -33 -8 -48 16 -25 18 17 19 22 8 33 -11 10 -15 8
-24 -8z"/>
<path d="M4360 1699 c0 -5 5 -7 10 -4 6 3 10 8 10 11 0 2 -4 4 -10 4 -5 0 -10
-5 -10 -11z"/>
<path d="M5425 1690 c-4 -12 -2 -27 4 -34 6 -7 8 -16 4 -19 -3 -4 -1 -7 5 -7
15 0 16 17 2 25 -6 3 -7 17 -4 31 7 29 -2 32 -11 4z"/>
<path d="M3071 1684 c0 -11 3 -14 6 -6 3 7 2 16 -1 19 -3 4 -6 -2 -5 -13z"/>
<path d="M4300 1690 c-13 -8 -12 -10 3 -10 9 0 17 5 17 10 0 12 -1 12 -20 0z"/>
<path d="M4458 1693 c6 -2 18 -2 25 0 6 3 1 5 -13 5 -14 0 -19 -2 -12 -5z"/>
<path d="M5897 1668 c-6 -41 -2 -48 27 -48 26 0 31 26 7 35 -14 6 -13 8 3 21
11 8 15 14 9 14 -6 0 -18 3 -26 6 -10 4 -16 -4 -20 -28z"/>
<path d="M6377 1694 c-3 -3 -3 -12 0 -20 6 -16 59 -19 68 -4 3 6 -1 10 -10 10
-9 0 -13 5 -10 10 7 11 -37 14 -48 4z"/>
<path d="M651 1667 c1 -17 2 -18 6 -4 7 26 19 20 31 -15 7 -19 10 -23 7 -9 -2
14 0 30 5 35 5 7 -2 12 -21 13 -24 2 -29 -1 -28 -20z"/>
<path d="M4398 1683 c7 -3 16 -2 19 1 4 3 -2 6 -13 5 -11 0 -14 -3 -6 -6z"/>
<path d="M5308 1683 c7 -3 16 -2 19 1 4 3 -2 6 -13 5 -11 0 -14 -3 -6 -6z"/>
<path d="M5988 1660 c-3 -16 -1 -30 4 -30 4 0 8 14 8 30 0 17 -2 30 -4 30 -2
0 -6 -13 -8 -30z"/>
<path d="M4245 1670 c11 -5 29 -8 40 -8 16 0 15 2 -5 8 -34 11 -60 11 -35 0z"/>
<path d="M4338 1673 c6 -2 18 -2 25 0 6 3 1 5 -13 5 -14 0 -19 -2 -12 -5z"/>
<path d="M5256 1670 c5 -5 25 -12 44 -15 l35 -6 -40 15 c-47 18 -52 19 -39 6z"/>
<path d="M6281 1671 c-11 -7 -11 -10 0 -15 8 -3 -2 -4 -21 -1 -19 3 -48 1 -65
-4 -16 -5 -24 -10 -17 -10 6 -1 12 -10 12 -22 0 -15 5 -19 18 -15 9 3 31 8 47
12 l30 8 -25 8 c-18 6 -14 6 15 3 22 -2 54 0 70 4 17 5 22 10 13 10 -10 1 -18
8 -18 16 0 16 -36 20 -59 6z"/>
<path d="M4175 1663 c11 -3 23 -9 26 -14 3 -6 14 -6 25 -2 17 6 17 8 -6 14
-14 4 -34 7 -45 7 l-20 0 20 -5z"/>
<path d="M5195 1660 c3 -5 13 -10 21 -10 8 0 12 5 9 10 -3 6 -13 10 -21 10 -8
0 -12 -4 -9 -10z"/>
<path d="M5358 1663 c7 -3 16 -2 19 1 4 3 -2 6 -13 5 -11 0 -14 -3 -6 -6z"/>
<path d="M7717 1658 c6 -7 9 -26 6 -43 -3 -23 -1 -26 7 -15 5 8 10 23 10 33 0
9 5 17 11 17 5 0 7 5 4 10 -3 6 -15 10 -27 10 -15 0 -18 -3 -11 -12z"/>
<path d="M7984 1631 c0 -22 4 -37 8 -35 11 7 10 74 -1 74 -5 0 -8 -18 -7 -39z"/>
<path d="M4114 1645 c16 -9 37 -13 45 -9 13 5 11 8 -9 14 -14 5 -34 8 -45 9
-15 1 -13 -3 9 -14z"/>
<path d="M4035 1641 c6 -6 26 -14 45 -17 24 -5 32 -3 25 4 -5 5 -26 13 -45 17
-25 5 -32 4 -25 -4z"/>
<path d="M5138 1643 c7 -3 16 -2 19 1 4 3 -2 6 -13 5 -11 0 -14 -3 -6 -6z"/>
<path d="M5235 1640 c-3 -6 -17 -7 -31 -4 -13 3 -24 2 -24 -4 0 -16 47 -23 74
-11 14 7 23 16 20 20 -7 12 -31 11 -39 -1z"/>
<path d="M3966 1631 c-6 -10 63 -26 72 -17 3 3 -4 6 -16 6 -12 0 -22 5 -22 10
0 12 -27 13 -34 1z"/>
<path d="M5085 1631 c74 -23 80 -24 70 -13 -5 6 -30 13 -55 16 -37 5 -40 4
-15 -3z"/>
<path d="M6058 1616 c-72 -18 -84 -24 -70 -33 15 -11 15 -12 -3 -12 -12 -1
-25 3 -30 8 -6 4 -30 3 -55 -4 l-45 -12 42 -8 c24 -4 40 -12 37 -17 -6 -10 1
-8 150 32 65 17 94 29 82 33 -9 4 -15 11 -11 16 11 19 -11 18 -97 -3z m35 -13
c-7 -2 -19 -2 -25 0 -7 3 -2 5 12 5 14 0 19 -2 13 -5z m0 -20 c-7 -2 -21 -2
-30 0 -10 3 -4 5 12 5 17 0 24 -2 18 -5z m-110 -30 c-7 -2 -19 -2 -25 0 -7 3
-2 5 12 5 14 0 19 -2 13 -5z"/>
<path d="M5040 1615 c19 -7 44 -13 55 -13 13 0 7 5 -15 13 -19 7 -44 13 -55
13 -13 0 -7 -5 15 -13z"/>
<path d="M42 1594 c13 -29 28 -31 28 -5 0 10 -9 21 -19 24 -17 4 -18 2 -9 -19z"/>
<path d="M3905 1613 c11 -3 23 -10 26 -16 4 -6 15 -7 25 -2 17 7 16 9 -6 15
-14 5 -34 8 -45 8 l-20 0 20 -5z"/>
<path d="M4956 1611 c5 -5 29 -12 54 -15 l45 -6 -40 15 c-45 17 -74 20 -59 6z"/>
<path d="M5285 1611 c-30 -7 -30 -7 -5 -14 13 -3 27 -2 30 2 3 5 16 11 30 14
l25 4 -25 0 c-14 1 -38 -2 -55 -6z"/>
<path d="M3840 1595 c28 -16 60 -19 60 -6 0 5 -14 11 -31 15 -48 9 -56 7 -29
-9z"/>
<path d="M4900 1600 c-12 -8 -11 -10 8 -10 12 0 22 5 22 10 0 13 -11 13 -30 0z"/>
<path d="M5360 1598 c-24 -10 -22 -12 30 -24 30 -7 59 -9 65 -4 5 4 19 10 30
13 11 3 -9 4 -45 2 -36 -3 -57 -2 -47 1 19 6 23 24 5 23 -7 0 -24 -5 -38 -11z"/>
<path d="M3756 1590 c6 -6 28 -13 50 -16 l39 -5 -34 15 c-39 19 -71 22 -55 6z"/>
<path d="M3690 1580 c-12 -8 -11 -10 7 -10 12 0 25 -4 28 -10 3 -5 13 -10 21
-10 8 0 14 5 14 10 0 6 -9 10 -20 10 -11 0 -20 5 -20 10 0 13 -11 13 -30 0z"/>
<path d="M4840 1581 c8 -5 33 -12 55 -16 27 -4 35 -3 25 4 -8 5 -33 12 -55 16
-27 4 -35 3 -25 -4z"/>
<path d="M4945 1580 c3 -5 13 -10 21 -10 8 0 14 5 14 10 0 6 -9 10 -21 10 -11
0 -17 -4 -14 -10z"/>
<path d="M4775 1570 c3 -5 15 -10 25 -10 10 0 20 -4 22 -10 2 -5 14 -7 28 -3
24 6 23 7 -10 19 -43 15 -73 17 -65 4z"/>
<path d="M5505 1566 l-30 -13 27 -5 c15 -3 25 -1 22 3 -3 5 7 9 23 9 22 0 25
2 13 10 -18 12 -18 12 -55 -4z"/>
<path d="M3623 1557 c15 -7 25 -16 22 -19 -3 -3 6 -3 20 0 35 6 18 22 -31 27
-39 5 -39 5 -11 -8z"/>
<path d="M4712 1562 c-9 -6 0 -12 26 -20 48 -15 65 -15 57 -2 -3 6 -15 10 -26
10 -10 0 -19 5 -19 10 0 12 -20 13 -38 2z"/>
<path d="M70 1550 c0 -5 5 -10 11 -10 5 0 7 5 4 10 -3 6 -8 10 -11 10 -2 0 -4
-4 -4 -10z"/>
<path d="M5583 1553 c-13 -2 -23 -9 -23 -14 0 -13 30 -10 65 6 29 13 29 13 5
13 -14 0 -35 -3 -47 -5z"/>
<path d="M100 1545 c1 -6 7 -21 16 -35 l15 -25 -7 25 c-7 26 -24 52 -24 35z"/>
<path d="M4640 1540 c8 -5 23 -10 33 -10 10 0 15 -5 12 -10 -4 -7 3 -8 22 -4
15 4 30 8 31 10 6 4 -71 24 -93 24 -17 0 -17 -2 -5 -10z"/>
<path d="M378 1534 c-3 -5 -2 -20 3 -32 9 -25 29 -26 37 -2 3 7 0 10 -7 6 -6
-4 -15 2 -19 15 -5 12 -11 18 -14 13z"/>
<path d="M4575 1530 c-3 -5 3 -10 14 -10 11 0 23 -4 26 -10 3 -5 15 -10 26
-10 10 0 19 5 19 10 0 6 -9 10 -20 10 -11 0 -20 5 -20 10 0 6 -9 10 -19 10
-11 0 -23 -4 -26 -10z"/>
<path d="M4515 1520 l-30 -7 37 -7 c21 -5 35 -12 32 -17 -3 -6 6 -7 23 -3 40
10 41 13 5 20 -18 4 -29 10 -26 15 6 10 3 10 -41 -1z"/>
<path d="M174 1498 c-12 -15 -25 -24 -29 -20 -5 4 -5 -1 -2 -11 4 -10 7 -25 7
-33 0 -8 10 -14 25 -14 16 0 25 -6 25 -15 0 -8 5 -15 10 -15 6 0 10 -6 10 -14
0 -7 7 -20 17 -27 15 -13 16 -11 9 16 -4 17 -16 39 -26 50 -11 12 -20 39 -22
65 l-3 45 -21 -27z"/>
<path d="M691 1504 c-8 -9 -23 -14 -37 -11 -34 6 -30 -9 6 -22 17 -5 34 -20
40 -33 7 -19 9 -20 9 -4 1 10 8 24 17 30 14 11 14 14 -3 34 -16 19 -19 20 -32
6z"/>
<path d="M773 1488 c-36 -25 -41 -32 -33 -48 6 -10 10 -30 10 -44 0 -24 10
-33 22 -21 3 3 1 23 -4 45 -10 36 -8 40 23 69 42 38 36 38 -18 -1z"/>
<path d="M4440 1502 c0 -8 58 -32 78 -32 24 0 11 16 -21 28 -39 14 -57 15 -57
4z"/>
<path d="M427 1493 c-4 -3 -7 -19 -7 -35 0 -21 6 -31 25 -38 14 -5 25 -16 25
-25 0 -8 4 -15 10 -15 5 0 19 -10 31 -22 l22 -23 -6 23 c-4 18 -2 22 11 20 12
-2 18 -15 20 -46 2 -30 8 -42 19 -42 9 0 13 6 9 15 -3 8 -8 37 -12 63 -6 47
-5 49 25 62 17 7 31 20 31 29 0 13 -2 13 -9 2 -9 -14 -91 -54 -91 -44 0 4 7
15 17 25 15 17 15 18 -7 18 -13 0 -34 -9 -46 -21 -20 -19 -22 -19 -39 -3 -10
10 -15 27 -12 41 4 22 -3 30 -16 16z"/>
<path d="M4375 1490 l-30 -7 37 -7 c23 -5 35 -12 31 -19 -4 -7 0 -8 11 -4 10
4 27 7 39 8 15 1 10 5 -16 13 -21 6 -35 15 -31 19 8 8 1 8 -41 -3z"/>
<path d="M4296 1471 c-7 -10 77 -35 96 -29 7 3 -4 12 -26 22 -43 18 -62 20
-70 7z"/>
<path d="M33 1442 c4 -15 -1 -27 -16 -37 -22 -16 -18 -31 7 -22 27 10 36 40
19 62 -15 20 -15 20 -10 -3z"/>
<path d="M1108 1359 c24 -16 32 -28 32 -50 0 -16 4 -29 9 -29 5 0 7 9 4 20 -6
21 12 28 20 8 2 -8 8 -9 13 -4 5 5 4 11 -4 13 -7 3 -20 12 -29 21 -16 17 -60
42 -72 42 -3 0 9 -10 27 -21z"/>
<path d="M4367 1369 c7 -7 15 -10 18 -7 3 3 -2 9 -12 12 -14 6 -15 5 -6 -5z"/>
<path d="M4245 1350 c-16 -7 -17 -9 -3 -9 9 -1 20 4 23 9 7 11 7 11 -20 0z"/>
<path d="M272 1324 c11 -23 13 -24 19 -7 5 14 8 9 14 -19 4 -21 12 -38 17 -38
5 0 7 13 3 29 -5 22 -2 32 12 41 16 10 15 11 -6 6 -13 -2 -34 -1 -47 4 -22 9
-23 8 -12 -16z"/>
<path d="M1213 1313 c-16 -6 -17 -52 -2 -73 8 -11 9 -7 6 20 -3 24 1 39 12 47
16 12 7 16 -16 6z"/>
<path d="M1270 1306 c0 -3 33 -27 73 -54 86 -58 97 -64 97 -59 0 3 -33 27 -72
54 -86 59 -98 66 -98 59z"/>
<path d="M5068 1272 c-32 -9 -58 -19 -58 -23 0 -13 90 -31 122 -25 18 4 47 9
63 13 17 3 36 10 44 16 10 9 20 4 41 -20 22 -25 30 -28 34 -16 11 29 6 43 -16
42 -13 0 -50 6 -83 15 -72 18 -75 18 -147 -2z"/>
<path d="M1890 1268 c-25 -5 -55 -12 -68 -14 l-23 -5 22 -18 c18 -14 30 -16
52 -10 37 10 47 5 47 -27 0 -23 3 -25 43 -22 34 2 42 7 43 23 1 15 0 16 -3 3
-7 -28 -30 -21 -36 10 -4 17 0 33 9 42 14 13 17 13 28 -2 18 -25 34 -22 32 5
-1 20 -6 22 -51 23 -27 0 -70 -3 -95 -8z m45 -27 c-3 -6 -11 -8 -17 -5 -6 4
-5 9 3 15 16 10 23 4 14 -10z"/>
<path d="M1650 1223 c-41 -8 -78 -19 -81 -25 -4 -6 -11 -8 -17 -4 -6 3 -13 2
-16 -3 -3 -5 3 -11 14 -14 11 -3 20 -1 20 4 0 6 7 6 18 1 9 -5 28 -8 42 -7 14
2 31 4 39 4 7 1 11 7 7 16 -4 10 1 15 15 15 19 0 19 -1 4 -16 -11 -11 -13 -20
-6 -27 13 -13 44 -1 38 16 -6 19 24 36 50 26 13 -5 25 -4 28 1 15 24 -66 31
-155 13z"/>
<path d="M4893 1230 c-35 -14 -27 -20 10 -8 17 6 34 13 36 14 8 7 -24 3 -46
-6z"/>
<path d="M2054 1206 c11 -9 27 -16 35 -15 14 0 14 1 1 6 -8 3 -24 10 -35 15
-20 9 -20 9 -1 -6z"/>
<path d="M2160 1210 c-21 -7 -21 -8 -5 -9 11 0 27 4 35 9 18 11 5 11 -30 0z"/>
<path d="M4808 1203 c7 -3 16 -2 19 1 4 3 -2 6 -13 5 -11 0 -14 -3 -6 -6z"/>
<path d="M1465 1178 c-136 -34 -182 -56 -172 -81 8 -22 294 -247 314 -247 9 0
30 4 47 9 105 32 117 34 128 23 12 -12 -7 -18 -67 -25 -27 -2 -26 -4 15 -13
45 -11 96 -44 283 -185 90 -68 120 -107 205 -272 13 -26 29 -47 34 -47 14 0
220 60 235 69 7 4 -28 34 -88 76 -80 55 -96 71 -82 76 27 11 35 10 28 -3 -4
-7 1 -4 10 7 9 11 17 18 18 17 1 -2 19 -1 40 3 33 6 37 11 37 36 0 28 15 40
22 18 3 -8 15 -9 37 -4 24 5 30 10 22 18 -17 17 -13 45 7 56 27 16 16 14 -168
-34 -95 -25 -177 -42 -184 -38 -6 4 -84 58 -173 121 -143 100 -181 136 -140
131 26 -3 47 2 47 11 0 5 -7 7 -15 4 -8 -3 -20 -2 -27 2 -9 6 -5 10 12 14 14
3 26 14 28 24 3 16 -1 18 -35 12 -134 -22 -115 -27 -253 70 -69 48 -127 89
-129 91 -2 2 -1 6 3 10 4 4 16 2 26 -5 11 -7 19 -8 18 -3 -2 5 6 17 17 25 19
16 19 16 -5 8 -16 -5 -33 -4 -47 3 -20 10 -20 12 -5 22 20 14 11 14 -43 1z
m-30 -28 c-3 -5 -18 -10 -33 -9 -24 0 -25 1 -7 9 28 12 47 12 40 0z m40 -20
c-3 -5 -23 -10 -43 -9 -33 1 -34 2 -12 9 36 12 62 12 55 0z m-110 -20 c-3 -5
-17 -10 -31 -10 -14 0 -22 4 -19 10 3 6 17 10 31 10 14 0 22 -4 19 -10z m109
-7 c3 -4 -15 -13 -41 -20 -59 -15 -83 -16 -83 -3 0 6 15 10 33 11 17 0 41 4
52 9 26 11 30 11 39 3z m46 -32 c0 -4 -15 -11 -32 -14 -18 -3 -48 -9 -65 -13
-22 -4 -33 -3 -33 5 0 6 12 11 28 12 15 0 36 4 47 9 27 11 55 12 55 1z m44
-30 c3 -5 -11 -11 -32 -15 -20 -3 -52 -9 -69 -12 -21 -4 -33 -2 -33 5 0 6 12
11 28 12 15 0 36 4 47 9 27 11 53 12 59 1z m40 -30 c3 -5 -11 -11 -32 -15 -20
-3 -52 -9 -69 -12 -21 -4 -33 -2 -33 5 0 6 15 11 33 11 17 0 39 5 47 10 19 12
47 13 54 1z m41 -30 c3 -6 -11 -13 -32 -16 -21 -4 -47 -10 -59 -15 -11 -4 -27
-4 -35 0 -15 10 -15 10 56 28 55 13 63 13 70 3z m44 -30 c12 -8 8 -11 -15 -16
-16 -3 -46 -11 -67 -17 -28 -9 -41 -8 -49 0 -9 9 -8 12 5 12 23 0 27 1 67 16
43 16 42 16 59 5z m215 -10 c6 -10 -63 -26 -71 -17 -6 6 34 24 54 25 6 1 14
-3 17 -8z m-164 -30 c0 -4 -17 -11 -37 -15 -21 -3 -53 -9 -70 -12 -21 -4 -33
-2 -33 5 0 6 12 11 28 11 15 0 34 5 42 10 19 12 70 13 70 1z m764 -246 c18
-14 18 -15 2 -21 -10 -4 -21 -2 -26 6 -5 8 -18 10 -39 5 -19 -4 -31 -3 -31 3
0 22 67 27 94 7z m-410 -11 c24 -9 19 -24 -8 -24 -26 0 -40 12 -29 24 8 8 17
8 37 0z m315 -40 c6 -5 -48 -24 -69 -24 -10 0 -21 7 -24 16 -5 13 0 14 27 9
24 -5 28 -4 17 5 -12 8 -8 9 15 4 17 -4 32 -8 34 -10z m-130 -41 c2 -2 0 -3
-5 -3 -5 0 -22 12 -39 26 l-30 26 35 -23 c19 -12 37 -24 39 -26z m-49 -13 c13
-8 13 -9 0 -14 -65 -20 -106 -15 -73 10 21 16 52 18 73 4z m5 -70 c3 -5 -1
-10 -9 -10 -8 0 -18 5 -21 10 -3 6 1 10 9 10 8 0 18 -4 21 -10z m72 -57 c-9
-8 -48 8 -42 18 4 5 14 5 26 -2 12 -6 18 -13 16 -16z m60 -50 c-8 -7 -37 9
-31 19 3 5 12 4 20 -3 8 -6 13 -14 11 -16z"/>
<path d="M1820 1180 c20 -13 33 -13 25 0 -3 6 -14 10 -23 10 -15 0 -15 -2 -2
-10z"/>
<path d="M2111 1169 c-13 -5 -39 -11 -58 -14 -18 -2 -41 -8 -50 -13 -14 -8
-13 -11 8 -26 20 -12 32 -14 59 -6 19 6 37 10 39 10 2 0 1 -15 -1 -33 -3 -32
-3 -32 33 -29 22 3 47 -2 61 -12 20 -13 34 -14 74 -6 135 28 147 36 92 63 -19
9 -34 12 -36 7 -2 -6 -11 -10 -20 -11 -13 0 -13 -2 -3 -6 9 -4 3 -10 -18 -19
-28 -12 -37 -12 -63 2 -22 11 -33 13 -41 5 -17 -17 -27 -13 -27 12 0 13 -5 28
-12 35 -12 12 1 17 42 14 9 0 5 7 -10 19 -28 21 -35 22 -69 8z m14 -29 c-3 -5
-11 -10 -16 -10 -6 0 -7 5 -4 10 3 6 11 10 16 10 6 0 7 -4 4 -10z"/>
<path d="M2225 1154 c0 -13 5 -24 12 -24 7 0 10 7 7 15 -5 11 -2 14 12 9 23
-9 16 -1 -11 14 -17 9 -20 7 -20 -14z"/>
<path d="M5300 1171 c0 -22 13 -41 28 -41 13 0 13 2 -3 13 -10 8 -15 19 -11
25 4 7 2 12 -3 12 -6 0 -11 -4 -11 -9z"/>
<path d="M5380 1164 c0 -11 -5 -25 -10 -30 -7 -7 -2 -18 15 -34 14 -13 25 -19
25 -13 0 6 9 9 19 6 13 -3 23 2 31 16 10 20 9 21 -16 15 -17 -4 -25 -3 -21 3
4 6 -5 21 -18 33 -24 22 -25 22 -25 4z"/>
<path d="M1780 1159 c0 -5 5 -7 10 -4 6 3 10 8 10 11 0 2 -4 4 -10 4 -5 0 -10
-5 -10 -11z"/>
<path d="M1726 1151 c-4 -5 3 -7 14 -4 23 6 26 13 6 13 -8 0 -17 -4 -20 -9z"/>
<path d="M6860 1118 c0 -13 -5 -18 -13 -15 -10 4 -13 -2 -9 -19 5 -30 22 -42
22 -17 0 10 11 25 24 33 l25 15 -25 12 c-21 10 -24 9 -24 -9z"/>
<path d="M1592 1114 c10 -10 20 -16 22 -13 3 3 -5 11 -17 18 -21 13 -21 12 -5
-5z"/>
<path d="M1910 1120 c8 -5 22 -10 30 -10 13 0 13 1 0 10 -8 5 -22 10 -30 10
-13 0 -13 -1 0 -10z"/>
<path d="M7050 1103 c0 -27 6 -35 40 -54 45 -26 45 -26 25 -91 -13 -43 -12
-48 2 -48 24 0 42 31 43 71 0 23 7 42 20 54 11 10 20 28 20 40 0 13 7 26 16
29 9 4 14 9 11 12 -3 3 -26 -11 -52 -30 -53 -41 -72 -38 -105 17 l-20 32 0
-32z"/>
<path d="M2230 1111 c0 -8 50 -34 56 -29 1 2 -11 11 -27 20 -16 9 -29 14 -29
9z"/>
<path d="M1878 1103 c7 -3 16 -2 19 1 4 3 -2 6 -13 5 -11 0 -14 -3 -6 -6z"/>
<path d="M2450 1100 c-8 -5 -10 -10 -5 -10 6 0 17 5 25 10 8 5 11 10 5 10 -5
0 -17 -5 -25 -10z"/>
<path d="M1790 1090 c-18 -12 -2 -12 25 0 13 6 15 9 5 9 -8 0 -22 -4 -30 -9z"/>
<path d="M6935 1090 c-3 -5 -1 -10 4 -10 6 0 11 5 11 10 0 6 -2 10 -4 10 -3 0
-8 -4 -11 -10z"/>
<path d="M7598 1072 c4 -21 6 -22 25 -9 32 21 32 37 0 34 -25 -2 -29 -6 -25
-25z"/>
<path d="M1597 1079 c7 -7 15 -10 18 -7 3 3 -2 9 -12 12 -14 6 -15 5 -6 -5z"/>
<path d="M1990 1073 c0 -4 4 -14 9 -22 8 -12 14 -12 33 -3 13 7 15 10 6 8 -10
-3 -24 2 -33 10 -8 9 -15 12 -15 7z"/>
<path d="M2426 1071 c-12 -18 -2 -61 14 -61 26 0 43 17 37 35 -4 9 -11 14 -16
10 -5 -3 -12 -1 -15 4 -4 5 2 12 11 14 14 4 13 5 -4 6 -12 0 -24 -3 -27 -8z"/>
<path d="M6730 1064 c0 -8 -4 -12 -10 -9 -15 9 -12 -28 4 -50 8 -11 11 -33 9
-52 -3 -20 0 -33 6 -33 6 0 11 18 11 40 0 34 4 41 25 46 13 3 29 12 35 19 9
11 7 12 -11 8 -15 -4 -20 -2 -15 5 3 6 -4 18 -16 26 -28 20 -38 20 -38 0z"/>
<path d="M2020 1010 c0 -5 9 -10 20 -10 11 0 20 5 20 10 0 6 -9 10 -20 10 -11
0 -20 -4 -20 -10z"/>
<path d="M2168 1004 c5 -9 7 -25 5 -34 -6 -23 -65 -35 -94 -20 -21 12 -49 7
-49 -8 0 -4 13 -15 29 -25 21 -12 36 -15 57 -8 16 5 57 15 92 22 34 7 62 16
62 20 0 10 -47 39 -65 39 -9 0 -18 7 -21 15 -4 8 -10 15 -16 15 -5 0 -5 -6 0
-16z"/>
<path d="M2490 996 c0 -9 5 -16 10 -16 6 0 10 4 10 9 0 6 -4 13 -10 16 -5 3
-10 -1 -10 -9z"/>
<path d="M5210 1002 c0 -16 41 -62 55 -62 10 0 12 -13 8 -55 -5 -49 -4 -55 11
-49 11 4 17 16 16 33 -5 65 -1 72 45 92 41 18 65 36 30 23 -11 -5 -13 -2 -9
10 4 11 0 16 -14 16 -11 0 -22 -5 -24 -11 -6 -18 -68 -22 -94 -4 -13 8 -24 11
-24 7z"/>
<path d="M7200 980 c0 -13 7 -20 18 -20 18 0 66 -54 67 -75 0 -5 -7 -31 -16
-56 -15 -44 -15 -47 2 -57 22 -14 25 -11 38 61 8 42 18 64 35 78 13 10 27 30
30 44 4 14 11 25 16 25 6 0 10 5 10 12 0 7 -6 5 -17 -4 -10 -9 -34 -24 -53
-33 -19 -10 -37 -21 -40 -26 -6 -9 -70 46 -70 61 0 5 -4 10 -10 10 -5 0 -10
-9 -10 -20z"/>
<path d="M2700 986 c0 -2 8 -10 18 -17 15 -13 16 -12 3 4 -13 16 -21 21 -21
13z"/>
<path d="M2795 970 c4 -7 1 -17 -6 -22 -11 -8 -10 -8 4 -4 10 3 31 6 45 6 29
1 18 11 -27 25 -17 5 -21 4 -16 -5z"/>
<path d="M1818 963 c7 -3 16 -2 19 1 4 3 -2 6 -13 5 -11 0 -14 -3 -6 -6z"/>
<path d="M6975 955 c-3 -8 -7 -22 -10 -30 -2 -8 1 -17 6 -21 6 -3 9 -15 6 -25
-3 -10 -1 -22 4 -25 5 -3 9 4 9 16 0 14 10 25 32 34 28 12 29 14 11 20 -12 4
-23 16 -26 26 -6 24 -26 26 -32 5z"/>
<path d="M3736 950 c6 -8 13 -22 16 -30 3 -10 6 -7 11 9 3 13 3 20 0 17 -4 -3
-13 0 -22 7 -14 10 -14 10 -5 -3z"/>
<path d="M6863 941 c-3 -12 -10 -18 -16 -14 -6 4 -7 -4 -2 -23 4 -16 9 -50 12
-76 6 -61 23 -63 23 -3 0 39 3 45 25 51 13 3 30 13 37 22 11 13 10 15 -4 9
-12 -4 -18 -2 -18 7 0 8 -12 21 -26 31 -24 16 -26 16 -31 -4z"/>
<path d="M3840 941 c0 -6 4 -13 10 -16 6 -3 7 1 4 9 -7 18 -14 21 -14 7z"/>
<path d="M5170 941 c0 -6 4 -13 10 -16 6 -3 7 1 4 9 -7 18 -14 21 -14 7z"/>
<path d="M2618 923 c6 -2 18 -2 25 0 6 3 1 5 -13 5 -14 0 -19 -2 -12 -5z"/>
<path d="M1961 904 c0 -11 3 -14 6 -6 3 7 2 16 -1 19 -3 4 -6 -2 -5 -13z"/>
<path d="M2290 910 c-13 -9 -13 -11 -1 -19 25 -16 -53 -25 -93 -10 -29 10 -38
11 -48 0 -11 -10 -8 -16 12 -32 28 -22 55 -21 166 7 l72 17 -28 24 c-30 25
-56 29 -80 13z"/>
<path d="M3232 895 c-45 -12 -213 -55 -374 -96 l-291 -74 37 -16 c21 -9 37
-20 37 -25 0 -5 6 -8 14 -6 7 1 16 -7 20 -18 3 -11 11 -20 16 -20 6 0 8 4 5 9
-3 5 1 12 10 15 24 9 31 7 14 -5 -12 -9 -12 -10 3 -5 10 3 26 6 35 7 14 0 13
2 -3 9 -16 7 -17 9 -3 9 9 1 25 4 35 7 15 5 15 4 3 -5 -11 -8 -11 -11 -2 -11
7 0 15 6 18 14 4 11 64 31 76 26 2 -1 16 3 31 9 22 9 29 8 34 -4 3 -9 24 -27
47 -40 l42 -24 77 21 c61 17 77 25 77 40 0 11 -4 17 -9 14 -5 -4 -12 0 -14 6
-3 7 -6 3 -6 -8 -1 -24 -31 -42 -31 -20 0 8 6 17 13 19 9 4 9 6 0 6 -11 1 -35
-31 -30 -40 1 -2 -6 4 -16 13 -22 22 -47 13 -47 -18 0 -24 0 -24 -31 -8 -23
11 -30 21 -26 35 3 10 1 19 -4 19 -5 0 -9 4 -9 9 0 5 8 7 18 4 13 -3 18 -11
15 -27 -3 -16 0 -23 11 -23 12 0 13 4 5 13 -6 7 -8 17 -5 23 3 5 -10 18 -29
30 -36 21 -43 15 -24 -21 12 -23 2 -39 -11 -18 -15 23 -12 80 4 86 8 3 29 -3
48 -12 18 -10 36 -17 39 -16 36 9 73 15 119 18 70 5 80 9 80 35 0 18 -4 20
-27 15 -21 -5 -24 -4 -13 4 8 5 32 10 53 10 24 0 36 4 32 11 -4 5 1 19 11 30
9 10 15 19 13 18 -2 0 -41 -11 -87 -24z m-347 -135 c-3 -5 -16 -10 -28 -9 -20
1 -20 2 3 9 14 4 26 8 28 9 2 1 0 -3 -3 -9z m-132 -37 c-7 -2 -19 -2 -25 0 -7
3 -2 5 12 5 14 0 19 -2 13 -5z m337 -34 c0 -5 -7 -9 -15 -9 -15 0 -20 12 -9
23 8 8 24 -1 24 -14z"/>
<path d="M3649 903 c-1 -5 0 -22 1 -38 1 -26 -3 -31 -26 -33 -22 -2 -25 0 -14
13 7 8 17 12 23 8 6 -3 7 -1 3 5 -10 17 -46 -8 -47 -33 0 -18 -1 -18 -9 3 -5
12 -13 22 -18 22 -15 0 -34 -28 -27 -40 7 -12 -5 -13 -23 -2 -7 5 -10 17 -7
28 6 18 6 18 -8 2 -8 -10 -17 -18 -21 -18 -3 0 -6 8 -6 18 0 9 -4 23 -8 30 -6
8 -9 1 -9 -19 0 -26 6 -34 35 -46 31 -13 43 -13 103 2 l69 17 0 44 c0 24 -2
44 -5 44 -3 0 -5 -3 -6 -7z m-79 -78 c0 -8 -7 -15 -15 -15 -16 0 -20 12 -8 23
11 12 23 8 23 -8z"/>
<path d="M2460 891 c0 -5 9 -7 20 -4 11 3 20 7 20 9 0 2 -9 4 -20 4 -11 0 -20
-4 -20 -9z"/>
<path d="M7938 895 c-12 -13 6 -54 28 -64 33 -15 34 -14 34 8 0 26 -17 36 -23
14 -3 -14 -7 -10 -19 15 -8 18 -17 30 -20 27z"/>
<path d="M2661 874 c0 -11 3 -14 6 -6 3 7 2 16 -1 19 -3 4 -6 -2 -5 -13z"/>
<path d="M3937 879 c7 -7 15 -10 18 -7 3 3 -2 9 -12 12 -14 6 -15 5 -6 -5z"/>
<path d="M2742 860 c0 -14 2 -19 5 -12 2 6 2 18 0 25 -3 6 -5 1 -5 -13z"/>
<path d="M3343 867 c-3 -5 -11 -6 -19 -3 -8 3 -14 1 -14 -4 0 -13 19 -12 55 4
26 12 27 14 7 13 -13 -1 -26 -5 -29 -10z"/>
<path d="M7690 866 c-8 -8 -37 -16 -65 -17 -34 -2 -68 -13 -105 -34 -31 -17
-61 -30 -68 -27 -15 5 -15 -3 -1 -26 9 -15 8 -31 -6 -72 -17 -50 -17 -54 -1
-66 9 -6 26 -10 36 -7 17 5 20 14 20 69 0 60 1 64 35 90 20 15 38 25 40 22 3
-2 -3 -23 -12 -46 -18 -46 -18 -47 15 -56 21 -7 22 -5 22 47 l0 54 39 11 c52
16 51 16 45 -18 -4 -19 -2 -30 5 -30 6 0 11 15 11 33 0 27 6 36 33 51 17 9 24
14 15 12 -12 -4 -18 0 -18 9 0 19 -21 19 -40 1z"/>
<path d="M7120 839 c0 -9 7 -23 16 -30 12 -10 15 -24 10 -56 -3 -25 -2 -43 4
-43 6 0 10 11 10 24 0 37 10 56 30 56 11 0 22 5 25 10 3 6 -3 10 -15 10 -12 0
-18 4 -15 10 4 7 -2 9 -18 5 -18 -5 -28 -2 -36 12 -9 15 -10 16 -11 2z"/>
<path d="M2908 833 c7 -3 16 -2 19 1 4 3 -2 6 -13 5 -11 0 -14 -3 -6 -6z"/>
<path d="M4053 780 c2 -50 4 -55 29 -64 20 -7 42 -5 83 8 53 16 55 18 55 53 0
41 -12 38 -14 -4 -1 -27 -14 -34 -88 -48 -24 -5 -28 -2 -28 19 0 14 -6 29 -14
33 -8 4 -16 19 -19 33 -3 14 -4 0 -4 -30z"/>
<path d="M2442 795 c0 -16 2 -22 5 -12 2 9 2 23 0 30 -3 6 -5 -1 -5 -18z"/>
<path d="M2805 810 c-13 -5 -14 -9 -5 -9 8 0 24 4 35 9 13 5 14 9 5 9 -8 0
-24 -4 -35 -9z"/>
<path d="M2040 806 c0 -2 8 -10 18 -17 15 -13 16 -12 3 4 -13 16 -21 21 -21
13z"/>
<path d="M2753 800 c-13 -5 -23 -11 -23 -14 0 -7 40 6 46 15 6 10 6 10 -23 -1z"/>
<path d="M3895 800 c-3 -5 2 -10 12 -10 14 -1 13 -4 -7 -16 -23 -14 -24 -14
-2 -9 68 16 68 16 41 31 -29 16 -36 17 -44 4z"/>
<path d="M3845 790 c-13 -6 -15 -9 -5 -9 8 0 22 4 30 9 18 12 2 12 -25 0z"/>
<path d="M2471 764 c0 -11 3 -14 6 -6 3 7 2 16 -1 19 -3 4 -6 -2 -5 -13z"/>
<path d="M4121 754 c0 -11 3 -14 6 -6 3 7 2 16 -1 19 -3 4 -6 -2 -5 -13z"/>
<path d="M7986 724 c-4 -15 -2 -32 3 -37 8 -8 11 0 11 26 0 44 -5 47 -14 11z"/>
<path d="M2499 736 c-3 -3 -19 -7 -36 -10 -17 -3 -42 -11 -55 -16 -21 -9 -20
-10 7 -4 17 3 39 8 50 10 11 2 34 8 50 13 22 7 25 10 9 10 -11 1 -23 -1 -25
-3z"/>
<path d="M4235 720 c-27 -10 -43 -18 -35 -18 8 0 38 8 65 18 28 10 43 18 35
18 -8 0 -37 -8 -65 -18z"/>
<path d="M7320 720 c-6 -11 -15 -18 -21 -15 -14 9 -11 -27 6 -59 10 -19 13
-41 9 -62 -4 -22 -2 -34 5 -34 6 0 11 11 11 24 0 36 17 76 33 76 7 0 22 7 33
16 15 13 16 15 2 10 -11 -3 -15 -1 -12 8 3 8 -8 23 -25 35 l-30 22 -11 -21z"/>
<path d="M7866 715 c6 -25 5 -27 -17 -20 l-24 7 23 -20 c12 -11 21 -29 20 -40
-4 -27 16 -29 20 -2 2 14 13 23 33 27 39 7 46 21 16 28 -15 4 -24 13 -23 23 1
12 -8 18 -27 20 -26 3 -27 1 -21 -23z"/>
<path d="M3217 719 c7 -7 15 -10 18 -7 3 3 -2 9 -12 12 -14 6 -15 5 -6 -5z"/>
<path d="M3670 714 c-25 -8 -51 -17 -58 -19 -9 -3 -7 -10 7 -24 19 -19 21 -19
80 -1 33 10 62 15 65 12 3 -3 6 -1 6 5 0 12 -33 43 -46 43 -5 -1 -29 -8 -54
-16z"/>
<path d="M2110 716 c0 -2 7 -7 16 -10 8 -3 12 -2 9 4 -6 10 -25 14 -25 6z"/>
<path d="M3830 685 c0 -14 5 -25 10 -25 6 0 10 11 10 25 0 14 -4 25 -10 25 -5
0 -10 -11 -10 -25z"/>
<path d="M2296 689 c3 -5 -3 -9 -12 -9 -10 0 -15 -3 -12 -6 3 -3 21 -1 39 4
l34 8 -27 6 c-15 3 -25 1 -22 -3z"/>
<path d="M4060 667 c-52 -17 -90 -32 -85 -34 6 -1 55 13 110 31 55 19 93 34
85 34 -8 0 -58 -14 -110 -31z"/>
<path d="M3465 666 l30 -25 -27 3 c-17 2 -25 -1 -21 -7 4 -6 0 -8 -10 -4 -10
3 -17 2 -17 -4 0 -7 -12 -8 -30 -4 -37 8 -54 -1 -37 -19 6 -8 15 -12 19 -9 5
2 42 14 83 26 l75 23 -47 22 -48 23 30 -25z"/>
<path d="M3579 685 c-3 -2 -3 -26 1 -52 4 -39 10 -50 31 -60 22 -11 37 -10 93
8 61 19 66 23 63 47 -2 14 -8 27 -14 29 -6 2 -8 -6 -6 -20 4 -22 -1 -27 -56
-45 -34 -11 -61 -18 -62 -14 -3 31 -10 48 -24 58 -9 7 -17 21 -18 33 -1 23 -2
23 -8 16z"/>
<path d="M2197 659 c7 -7 15 -10 18 -7 3 3 -2 9 -12 12 -14 6 -15 5 -6 -5z"/>
<path d="M2238 663 c7 -3 16 -2 19 1 4 3 -2 6 -13 5 -11 0 -14 -3 -6 -6z"/>
<path d="M2547 653 c3 -7 9 -10 15 -7 5 3 22 10 36 14 23 7 21 8 -14 7 -28 -1
-40 -6 -37 -14z"/>
<path d="M7797 653 c-2 -5 -7 -21 -11 -37 -7 -27 -6 -28 21 -22 15 4 33 12 38
18 7 8 6 9 -3 4 -15 -9 -40 14 -34 32 4 13 -4 17 -11 5z"/>
<path d="M3710 639 c0 -5 5 -7 10 -4 6 3 10 8 10 11 0 2 -4 4 -10 4 -5 0 -10
-5 -10 -11z"/>
<path d="M3663 633 c-7 -2 -13 -14 -13 -25 0 -12 3 -18 8 -14 4 4 7 13 7 19 0
5 6 12 13 15 6 2 12 -1 12 -7 0 -6 7 -11 16 -11 14 0 14 2 0 15 -15 16 -22 17
-43 8z"/>
<path d="M3895 615 c-73 -25 -479 -153 -595 -189 -63 -19 -167 -51 -230 -71
-250 -80 -299 -93 -303 -81 -5 11 -107 71 -107 62 0 -2 17 -15 38 -27 20 -13
40 -28 44 -33 4 -6 8 -7 8 -2 0 6 6 2 13 -8 13 -18 19 -17 123 17 60 20 183
59 274 87 450 142 807 258 790 258 -8 0 -33 -6 -55 -13z"/>
<path d="M1435 589 c-27 -11 -57 -18 -67 -16 -11 3 -18 0 -18 -9 0 -8 -4 -14
-10 -14 -5 0 -10 4 -10 10 0 6 -9 6 -25 0 -14 -5 -25 -7 -25 -4 0 4 -6 2 -12
-4 -7 -5 -41 -12 -76 -15 -34 -4 -81 -11 -103 -17 -34 -9 -40 -15 -36 -32 3
-11 3 -17 0 -14 -4 3 -13 -3 -21 -15 -9 -13 -21 -19 -33 -16 -26 7 -24 -5 6
-33 14 -13 25 -28 25 -35 0 -6 12 -26 28 -44 22 -26 37 -34 75 -38 35 -4 47
-2 45 7 -3 12 54 30 287 89 102 26 167 31 133 10 -11 -7 -11 -9 0 -9 12 0 166
38 223 56 9 2 19 16 21 29 5 23 3 24 -37 18 -40 -5 -44 -3 -80 40 -36 43 -41
46 -114 56 -42 6 -87 13 -101 16 -14 2 -47 -5 -75 -16z m-296 -238 l21 -29
-37 -7 c-31 -6 -39 -3 -55 17 -22 29 -22 35 0 41 38 10 51 6 71 -22z"/>
<path d="M7633 577 c15 -23 17 -39 12 -78 -5 -32 -3 -49 4 -49 11 0 18 22 23
70 2 18 9 25 25 25 11 0 25 3 29 8 4 4 0 7 -10 7 -10 0 -14 5 -10 11 4 7 -4
10 -24 8 -16 -2 -38 3 -48 11 -18 15 -18 14 -1 -13z"/>
<path d="M7750 560 c-9 -16 -8 -20 5 -20 8 0 15 9 15 20 0 11 -2 20 -5 20 -2
0 -9 -9 -15 -20z"/>
<path d="M2360 546 c0 -2 24 -21 53 -41 l52 -36 -45 40 c-41 36 -60 48 -60 37z"/>
<path d="M2538 513 c6 -2 18 -2 25 0 6 3 1 5 -13 5 -14 0 -19 -2 -12 -5z"/>
<path d="M7970 507 c1 -7 7 -25 15 -42 l13 -30 1 36 c1 24 -4 39 -14 43 -8 3
-15 0 -15 -7z"/>
<path d="M2833 499 c-39 -11 -45 -22 -8 -13 29 7 31 -12 5 -33 -9 -7 7 -5 41
5 l57 17 -29 17 c-16 10 -30 18 -32 17 -1 0 -17 -5 -34 -10z"/>
<path d="M2996 501 c-4 -5 3 -7 14 -4 23 6 26 13 6 13 -8 0 -17 -4 -20 -9z"/>
<path d="M3425 490 c-13 -6 -15 -9 -5 -9 8 0 22 4 30 9 18 12 2 12 -25 0z"/>
<path d="M2768 473 c7 -3 16 -2 19 1 4 3 -2 6 -13 5 -11 0 -14 -3 -6 -6z"/>
<path d="M1858 463 c7 -3 16 -2 19 1 4 3 -2 6 -13 5 -11 0 -14 -3 -6 -6z"/>
<path d="M2498 448 c18 -13 59 -42 90 -65 31 -23 59 -40 61 -37 5 5 -39 44
-50 44 -4 0 -14 6 -21 13 -22 20 -93 67 -103 67 -6 0 5 -10 23 -22z"/>
<path d="M2119 383 c-13 -16 -12 -17 4 -4 16 13 21 21 13 21 -2 0 -10 -8 -17
-17z"/>
<path d="M2386 362 c-66 -20 -115 -37 -109 -39 12 -4 219 53 243 68 29 17 -12
8 -134 -29z"/>
<path d="M2774 374 c3 -9 6 -20 6 -25 0 -5 4 -9 9 -9 4 0 6 11 3 25 -2 14 -9
25 -14 25 -6 0 -7 -7 -4 -16z"/>
<path d="M525 336 c-170 -44 -256 -80 -311 -128 -42 -37 -43 -57 -3 -142 l31
-66 95 0 c55 0 92 4 88 9 -3 5 0 13 6 17 6 4 16 -1 21 -10 7 -13 26 -16 98
-16 50 0 90 2 90 5 0 2 -27 49 -60 103 -33 55 -60 104 -60 110 0 5 49 22 109
37 68 17 112 33 115 42 6 14 -39 84 -53 82 -3 0 -78 -20 -166 -43z m120 -25
c-6 -5 -28 -11 -50 -14 l-40 -6 40 14 c49 16 62 18 50 6z m-245 -81 c-14 -11
-32 -20 -40 -20 -8 0 -1 9 15 20 39 26 58 26 25 0z m-22 -101 c-16 -10 -33 5
-23 21 5 8 11 8 21 -1 12 -10 12 -14 2 -20z m40 -56 c6 -19 -25 -16 -32 3 -4
11 -1 14 11 12 9 -2 18 -9 21 -15z"/>
<path d="M2035 350 c-3 -6 1 -7 9 -4 18 7 21 14 7 14 -6 0 -13 -4 -16 -10z"/>
<path d="M30 298 c-7 -24 -11 -45 -10 -47 1 -2 -4 -7 -11 -12 -8 -4 -11 -11
-7 -14 15 -15 48 36 48 75 0 22 -2 40 -3 40 -2 0 -10 -19 -17 -42z"/>
<path d="M2145 313 c-27 -17 -32 -22 -15 -17 25 7 81 45 64 43 -5 0 -27 -12
-49 -26z"/>
<path d="M1198 303 c7 -3 16 -2 19 1 4 3 -2 6 -13 5 -11 0 -14 -3 -6 -6z"/>
<path d="M2070 280 c-8 -5 -10 -10 -5 -10 6 0 17 5 25 10 8 5 11 10 5 10 -5 0
-17 -5 -25 -10z"/>
<path d="M1970 250 c-18 -12 -2 -12 25 0 13 6 15 9 5 9 -8 0 -22 -4 -30 -9z"/>
<path d="M2181 228 c-46 -111 -51 -120 -66 -114 -9 3 -14 2 -11 -3 10 -16 -23
-33 -137 -72 l-112 -38 70 0 c65 -1 109 10 265 65 26 10 78 83 73 103 -2 10
-20 33 -39 50 l-34 32 -9 -23z"/>
<path d="M1858 213 c7 -3 16 -2 19 1 4 3 -2 6 -13 5 -11 0 -14 -3 -6 -6z"/>
<path d="M742 163 c0 -29 5 -53 9 -53 4 0 5 -9 2 -21 -4 -12 0 -25 8 -29 7 -5
14 -19 14 -32 0 -19 6 -23 38 -26 43 -4 45 1 16 69 -24 56 -43 65 -35 17 6
-33 5 -32 -14 7 -11 22 -20 51 -20 65 0 14 -5 32 -10 40 -7 11 -10 0 -8 -37z"/>
<path d="M1138 203 c12 -2 30 -2 40 0 9 3 -1 5 -23 4 -22 0 -30 -2 -17 -4z"/>
<path d="M2025 200 c-13 -6 -15 -9 -5 -9 8 0 22 4 30 9 18 12 2 12 -25 0z"/>
<path d="M1750 188 c-19 -5 -39 -13 -44 -18 -5 -5 13 -2 39 6 27 8 51 16 53
19 7 7 -7 5 -48 -7z"/>
<path d="M1430 180 c-8 -5 -10 -10 -5 -10 6 0 17 5 25 10 8 5 11 10 5 10 -5 0
-17 -5 -25 -10z"/>
<path d="M2115 177 c-11 -6 -139 -48 -285 -94 -146 -45 -258 -82 -249 -83 20
0 427 123 497 151 29 12 55 25 58 30 7 12 3 11 -21 -4z"/>
<path d="M1948 173 c7 -3 16 -2 19 1 4 3 -2 6 -13 5 -11 0 -14 -3 -6 -6z"/>
<path d="M1660 160 c-8 -5 -10 -10 -5 -10 6 0 17 5 25 10 8 5 11 10 5 10 -5 0
-17 -5 -25 -10z"/>
<path d="M1870 155 c-80 -24 -105 -33 -92 -34 14 -1 102 24 137 39 30 13 6 10
-45 -5z"/>
<path d="M2100 140 c-9 -6 -10 -10 -3 -10 6 0 15 5 18 10 8 12 4 12 -15 0z"/>
<path d="M1578 133 c7 -3 16 -2 19 1 4 3 -2 6 -13 5 -11 0 -14 -3 -6 -6z"/>
<path d="M872 68 l3 -68 48 0 49 0 -38 53 c-65 91 -66 91 -62 15z"/>
<path d="M1018 123 c6 -2 18 -2 25 0 6 3 1 5 -13 5 -14 0 -19 -2 -12 -5z"/>
<path d="M1530 120 c-8 -5 -10 -10 -5 -10 6 0 17 5 25 10 8 5 11 10 5 10 -5 0
-17 -5 -25 -10z"/>
<path d="M1153 113 c9 -2 25 -2 35 0 9 3 1 5 -18 5 -19 0 -27 -2 -17 -5z"/>
<path d="M1490 110 c-9 -6 -10 -10 -3 -10 6 0 15 5 18 10 8 12 4 12 -15 0z"/>
<path d="M1700 104 l-35 -14 35 6 c40 7 76 24 50 23 -8 0 -31 -7 -50 -15z"/>
<path d="M2025 110 c-13 -6 -15 -9 -5 -9 8 0 22 4 30 9 18 12 2 12 -25 0z"/>
<path d="M1420 90 c-8 -5 -10 -10 -5 -10 6 0 17 5 25 10 8 5 11 10 5 10 -5 0
-17 -5 -25 -10z"/>
<path d="M939 76 c13 -16 51 -41 51 -33 0 2 -15 14 -32 27 -21 15 -28 17 -19
6z"/>
<path d="M1910 75 c-19 -7 -28 -13 -20 -13 8 0 31 6 50 13 19 7 28 13 20 13
-8 0 -31 -6 -50 -13z"/>
<path d="M1338 63 c7 -3 16 -2 19 1 4 3 -2 6 -13 5 -11 0 -14 -3 -6 -6z"/>
<path d="M1538 58 c-21 -6 -38 -14 -38 -18 0 -7 31 1 90 23 27 10 -10 6 -52
-5z"/>
<path d="M1265 50 c-27 -7 -28 -8 -5 -8 14 0 34 3 45 8 25 11 2 11 -40 0z"/>
<path d="M1810 45 c-19 -7 -28 -13 -20 -13 8 0 31 6 50 13 19 7 28 13 20 13
-8 0 -31 -6 -50 -13z"/>
<path d="M1600 39 c0 -5 5 -7 10 -4 6 3 10 8 10 11 0 2 -4 4 -10 4 -5 0 -10
-5 -10 -11z"/>
<path d="M1035 30 c3 -5 11 -10 16 -10 6 0 7 5 4 10 -3 6 -11 10 -16 10 -6 0
-7 -4 -4 -10z"/>
<path d="M1208 33 c7 -3 16 -2 19 1 4 3 -2 6 -13 5 -11 0 -14 -3 -6 -6z"/>
<path d="M1415 20 c-33 -10 -54 -19 -47 -19 17 -1 122 29 122 35 0 6 -9 4 -75
-16z"/>
<path d="M1158 23 c7 -3 16 -2 19 1 4 3 -2 6 -13 5 -11 0 -14 -3 -6 -6z"/>
<path d="M1688 3 c7 -3 16 -2 19 1 4 3 -2 6 -13 5 -11 0 -14 -3 -6 -6z"/>
</g>
</svg>
